<svg width="1344" height="40" viewBox="0 0 1344 40" fill="none" xmlns="http://www.w3.org/2000/svg">
<path d="M249.121 11.5103C250.064 9.91379 251.291 7.86199 251.84 6.91098L252.87 5.18193L258.45 14.7917C261.533 20.1164 264.024 24.4996 263.978 24.6149C263.931 24.7302 261.543 24.8415 258.669 24.8251L253.39 24.8795L250.906 20.3982C249.543 17.8746 248.277 15.6916 248.11 15.524C247.39 14.7324 247.518 14.248 249.121 11.5103ZM259.708 4.41477C262.506 4.36764 264.924 4.43524 265.079 4.46435C265.252 4.53388 266.668 6.84405 268.255 9.55838L271.143 14.5365L268.475 19.2571C267 21.845 265.756 23.8564 265.687 23.6947C265.56 23.5099 263.311 19.6925 260.671 15.1821C257.99 10.6889 255.551 6.42693 255.2 5.7167L254.608 4.44066L259.708 4.41477Z" fill="#868686"/>
<path d="M269.08 21.854C270.023 20.2575 271.25 18.2057 271.799 17.2547L272.829 15.5257L278.409 25.1355C281.492 30.4601 283.983 34.8434 283.937 34.9587C283.89 35.074 281.502 35.1853 278.628 35.1688L273.349 35.2232L270.865 30.7419C269.502 28.2184 268.236 26.0354 268.069 25.8678C267.349 25.0762 267.477 24.5918 269.08 21.854ZM279.667 14.7585C282.465 14.7114 284.883 14.779 285.038 14.8081C285.211 14.8776 286.627 17.1878 288.214 19.9021L291.102 24.8803L288.434 29.6008C286.959 32.1888 285.715 34.2001 285.646 34.0385C285.519 33.8536 283.27 30.0362 280.63 25.5258C277.949 21.0327 275.51 16.7707 275.159 16.0604L274.567 14.7844L279.667 14.7585Z" fill="#E6E6E6"/>
<path d="M289.062 11.4829C290.005 9.88644 291.232 7.83464 291.782 6.88364L292.812 5.15459L298.391 14.7644C301.475 20.089 303.965 24.4723 303.919 24.5876C303.873 24.7029 301.484 24.8142 298.611 24.7977L293.332 24.8521L290.847 20.3708C289.484 17.8473 288.218 15.6643 288.051 15.4967C287.332 14.7051 287.459 14.2207 289.062 11.4829ZM299.65 4.38743C302.448 4.34029 304.865 4.40789 305.021 4.43701C305.194 4.50654 306.609 6.81671 308.197 9.53104L311.085 14.5092L308.417 19.2297C306.941 21.8177 305.697 23.8291 305.628 23.6674C305.502 23.4826 303.252 19.6651 300.612 15.1547C297.931 10.6616 295.492 6.39959 295.142 5.68936L294.549 4.41331L299.65 4.38743Z" fill="#E6E6E6"/>
<path d="M309.806 20.7427C310.749 19.1462 311.976 17.0944 312.526 16.1434L313.556 14.4144L319.136 24.0242C322.219 29.3488 324.709 33.732 324.663 33.8473C324.617 33.9626 322.228 34.0739 319.355 34.0575L314.076 34.1119L311.591 29.6306C310.228 27.1071 308.963 24.9241 308.796 24.7565C308.076 23.9648 308.204 23.4804 309.806 20.7427ZM320.394 13.6472C323.192 13.6001 325.609 13.6677 325.765 13.6968C325.938 13.7663 327.353 16.0765 328.941 18.7908L331.829 23.769L329.161 28.4895C327.685 31.0774 326.441 33.0888 326.372 32.9272C326.246 32.7423 323.997 28.9249 321.356 24.4145C318.675 19.9213 316.236 15.6594 315.886 14.9491L315.294 13.6731L320.394 13.6472Z" fill="#E6E6E6"/>
<path d="M330.675 11.4829C331.619 9.88644 332.845 7.83464 333.395 6.88364L334.425 5.15459L340.005 14.7644C343.088 20.089 345.579 24.4723 345.532 24.5876C345.486 24.7029 343.097 24.8142 340.224 24.7977L334.945 24.8521L332.46 20.3708C331.097 17.8473 329.832 15.6643 329.665 15.4967C328.945 14.7051 329.073 14.2207 330.675 11.4829ZM341.263 4.38743C344.061 4.34029 346.478 4.40789 346.634 4.43701C346.807 4.50654 348.222 6.81671 349.81 9.53104L352.698 14.5092L350.03 19.2297C348.554 21.8177 347.311 23.8291 347.242 23.6674C347.115 23.4826 344.866 19.6651 342.225 15.1547C339.544 10.6616 337.105 6.39959 336.755 5.68936L336.163 4.41331L341.263 4.38743Z" fill="#E6E6E6"/>
<path d="M351.545 21.854C352.488 20.2575 353.714 18.2057 354.264 17.2547L355.294 15.5257L360.874 25.1355C363.957 30.4601 366.448 34.8434 366.401 34.9587C366.355 35.074 363.966 35.1853 361.093 35.1688L355.814 35.2232L353.329 30.7419C351.966 28.2184 350.701 26.0354 350.534 25.8678C349.814 25.0762 349.942 24.5918 351.545 21.854ZM362.132 14.7585C364.93 14.7114 367.348 14.779 367.503 14.8081C367.676 14.8776 369.092 17.1878 370.679 19.9021L373.567 24.8803L370.899 29.6008C369.424 32.1888 368.18 34.2001 368.111 34.0385C367.984 33.8536 365.735 30.0362 363.094 25.5258C360.414 21.0327 357.975 16.7707 357.624 16.0604L357.032 14.7844L362.132 14.7585Z" fill="#E6E6E6"/>
<path d="M372.277 11.5103C373.22 9.91379 374.447 7.86199 374.997 6.91098L376.026 5.18193L381.606 14.7917C384.69 20.1164 387.18 24.4996 387.134 24.6149C387.087 24.7302 384.699 24.8415 381.826 24.8251L376.547 24.8795L374.062 20.3982C372.699 17.8746 371.433 15.6916 371.266 15.524C370.546 14.7324 370.674 14.248 372.277 11.5103ZM382.864 4.41477C385.663 4.36764 388.08 4.43524 388.236 4.46435C388.409 4.53388 389.824 6.84405 391.412 9.55838L394.299 14.5365L391.632 19.2571C390.156 21.845 388.912 23.8564 388.843 23.6947C388.717 23.5099 386.467 19.6925 383.827 15.1821C381.146 10.6889 378.707 6.42693 378.356 5.7167L377.764 4.44066L382.864 4.41477Z" fill="#E6E6E6"/>
<path d="M392.236 21.854C393.179 20.2575 394.406 18.2057 394.956 17.2547L395.985 15.5257L401.565 25.1355C404.649 30.4601 407.139 34.8434 407.093 34.9587C407.046 35.074 404.658 35.1853 401.785 35.1688L396.506 35.2232L394.021 30.7419C392.658 28.2184 391.392 26.0354 391.225 25.8678C390.505 25.0762 390.633 24.5918 392.236 21.854ZM402.823 14.7585C405.622 14.7114 408.039 14.779 408.195 14.8081C408.368 14.8776 409.783 17.1878 411.371 19.9021L414.258 24.8803L411.591 29.6008C410.115 32.1888 408.871 34.2001 408.802 34.0385C408.676 33.8536 406.426 30.0362 403.786 25.5258C401.105 21.0327 398.666 16.7707 398.315 16.0604L397.723 14.7844L402.823 14.7585Z" fill="#E6E6E6"/>
<path d="M412.218 11.4829C413.162 9.88644 414.388 7.83464 414.938 6.88364L415.968 5.15459L421.548 14.7644C424.631 20.089 427.122 24.4723 427.075 24.5876C427.029 24.7029 424.64 24.8142 421.767 24.7977L416.488 24.8521L414.003 20.3708C412.64 17.8473 411.375 15.6643 411.208 15.4967C410.488 14.7051 410.616 14.2207 412.218 11.4829ZM422.806 4.38743C425.604 4.34029 428.021 4.40789 428.177 4.43701C428.35 4.50654 429.765 6.81671 431.353 9.53104L434.241 14.5092L431.573 19.2297C430.097 21.8177 428.854 23.8291 428.785 23.6674C428.658 23.4826 426.409 19.6651 423.768 15.1547C421.087 10.6616 418.648 6.39959 418.298 5.68936L417.706 4.41331L422.806 4.38743Z" fill="#E6E6E6"/>
<path d="M432.963 20.7427C433.906 19.1462 435.132 17.0944 435.682 16.1434L436.712 14.4144L442.292 24.0242C445.375 29.3488 447.866 33.732 447.819 33.8473C447.773 33.9626 445.384 34.0739 442.511 34.0575L437.232 34.1119L434.747 29.6306C433.384 27.1071 432.119 24.9241 431.952 24.7565C431.232 23.9648 431.36 23.4804 432.963 20.7427ZM443.55 13.6472C446.348 13.6001 448.765 13.6677 448.921 13.6968C449.094 13.7663 450.509 16.0765 452.097 18.7908L454.985 23.769L452.317 28.4895C450.842 31.0774 449.598 33.0888 449.529 32.9272C449.402 32.7423 447.153 28.9249 444.512 24.4145C441.832 19.9213 439.393 15.6594 439.042 14.9491L438.45 13.6731L443.55 13.6472Z" fill="#E6E6E6"/>
<path d="M453.832 11.4829C454.775 9.88644 456.001 7.83464 456.551 6.88364L457.581 5.15459L463.161 14.7644C466.244 20.089 468.735 24.4723 468.689 24.5876C468.642 24.7029 466.253 24.8142 463.38 24.7977L458.101 24.8521L455.617 20.3708C454.254 17.8473 452.988 15.6643 452.821 15.4967C452.101 14.7051 452.229 14.2207 453.832 11.4829ZM464.419 4.38743C467.217 4.34029 469.635 4.40789 469.79 4.43701C469.963 4.50654 471.379 6.81671 472.966 9.53104L475.854 14.5092L473.186 19.2297C471.711 21.8177 470.467 23.8291 470.398 23.6674C470.271 23.4826 468.022 19.6651 465.382 15.1547C462.701 10.6616 460.262 6.39959 459.911 5.68936L459.319 4.41331L464.419 4.38743Z" fill="#E6E6E6"/>
<path d="M4.12076 11.5103C5.0639 9.91379 6.29052 7.86199 6.84024 6.91098L7.87015 5.18193L13.45 14.7917C16.5333 20.1164 19.0239 24.4996 18.9775 24.6149C18.9312 24.7302 16.5425 24.8415 13.6694 24.8251L8.39029 24.8795L5.90559 20.3982C4.54257 17.8746 3.27704 15.6916 3.11001 15.524C2.3902 14.7324 2.51795 14.248 4.12076 11.5103ZM14.7082 4.41477C17.5064 4.36764 19.9237 4.43524 20.0794 4.46435C20.2524 4.53388 21.6677 6.84405 23.2554 9.55838L26.1431 14.5365L23.4753 19.2571C21.9997 21.845 20.7558 23.8564 20.6869 23.6947C20.5603 23.5099 18.311 19.6925 15.6705 15.1821C12.9897 10.6889 10.5508 6.42693 10.2001 5.7167L9.608 4.44066L14.7082 4.41477Z" fill="#262626"/>
<path d="M24.0797 21.854C25.0229 20.2575 26.2495 18.2057 26.7992 17.2547L27.8291 15.5257L33.409 25.1355C36.4923 30.4601 38.9829 34.8434 38.9365 34.9587C38.8902 35.074 36.5015 35.1853 33.6284 35.1688L28.3493 35.2232L25.8646 30.7419C24.5016 28.2184 23.236 26.0354 23.069 25.8678C22.3492 25.0762 22.4769 24.5918 24.0797 21.854ZM34.6672 14.7585C37.4654 14.7114 39.8827 14.779 40.0384 14.8081C40.2113 14.8776 41.6267 17.1878 43.2144 19.9021L46.1021 24.8803L43.4343 29.6008C41.9587 32.1888 40.7148 34.2001 40.6458 34.0385C40.5192 33.8536 38.2699 30.0362 35.6295 25.5258C32.9487 21.0327 30.5098 16.7707 30.1591 16.0604L29.567 14.7844L34.6672 14.7585Z" fill="#262626"/>
<path d="M44.0622 11.4829C45.0053 9.88644 46.2319 7.83464 46.7816 6.88364L47.8116 5.15459L53.3914 14.7644C56.4747 20.089 58.9653 24.4723 58.919 24.5876C58.8726 24.7029 56.4839 24.8142 53.6108 24.7977L48.3317 24.8521L45.847 20.3708C44.484 17.8473 43.2184 15.6643 43.0514 15.4967C42.3316 14.7051 42.4594 14.2207 44.0622 11.4829ZM54.6496 4.38743C57.4478 4.34029 59.8651 4.40789 60.0208 4.43701C60.1938 4.50654 61.6091 6.81671 63.1968 9.53104L66.0845 14.5092L63.4167 19.2297C61.9411 21.8177 60.6972 23.8291 60.6283 23.6674C60.5017 23.4826 58.2524 19.6651 55.6119 15.1547C52.9311 10.6616 50.4922 6.39959 50.1415 5.68936L49.5494 4.41331L54.6496 4.38743Z" fill="#4B4B4B"/>
<path d="M64.8063 20.7427C65.7494 19.1462 66.9761 17.0944 67.5258 16.1434L68.5557 14.4144L74.1355 24.0242C77.2188 29.3488 79.7094 33.732 79.6631 33.8473C79.6167 33.9626 77.228 34.0739 74.3549 34.0575L69.0758 34.1119L66.5911 29.6306C65.2281 27.1071 63.9626 24.9241 63.7956 24.7565C63.0757 23.9648 63.2035 23.4804 64.8063 20.7427ZM75.3937 13.6472C78.192 13.6001 80.6092 13.6677 80.7649 13.6968C80.9379 13.7663 82.3532 16.0765 83.9409 18.7908L86.8286 23.769L84.1609 28.4895C82.6852 31.0774 81.4414 33.0888 81.3724 32.9272C81.2458 32.7423 78.9965 28.9249 76.3561 24.4145C73.6752 19.9213 71.2363 15.6594 70.8856 14.9491L70.2936 13.6731L75.3937 13.6472Z" fill="#4B4B4B"/>
<path d="M85.6755 11.4829C86.6186 9.88644 87.8452 7.83464 88.395 6.88364L89.4249 5.15459L95.0047 14.7644C98.088 20.089 100.579 24.4723 100.532 24.5876C100.486 24.7029 98.0972 24.8142 95.2241 24.7977L89.945 24.8521L87.4603 20.3708C86.0973 17.8473 84.8318 15.6643 84.6647 15.4967C83.9449 14.7051 84.0727 14.2207 85.6755 11.4829ZM96.2629 4.38743C99.0611 4.34029 101.478 4.40789 101.634 4.43701C101.807 4.50654 103.222 6.81671 104.81 9.53104L107.698 14.5092L105.03 19.2297C103.554 21.8177 102.311 23.8291 102.242 23.6674C102.115 23.4826 99.8657 19.6651 97.2253 15.1547C94.5444 10.6616 92.1055 6.39959 91.7548 5.68936L91.1627 4.41331L96.2629 4.38743Z" fill="#4B4B4B"/>
<path d="M106.545 21.854C107.488 20.2575 108.714 18.2057 109.264 17.2547L110.294 15.5257L115.874 25.1355C118.957 30.4601 121.448 34.8434 121.401 34.9587C121.355 35.074 118.966 35.1853 116.093 35.1688L110.814 35.2232L108.329 30.7419C106.966 28.2184 105.701 26.0354 105.534 25.8678C104.814 25.0762 104.942 24.5918 106.545 21.854ZM117.132 14.7585C119.93 14.7114 122.347 14.779 122.503 14.8081C122.676 14.8776 124.091 17.1878 125.679 19.9021L128.567 24.8803L125.899 29.6008C124.424 32.1888 123.18 34.2001 123.111 34.0385C122.984 33.8536 120.735 30.0362 118.094 25.5258C115.414 21.0327 112.975 16.7707 112.624 16.0604L112.032 14.7844L117.132 14.7585Z" fill="#4B4B4B"/>
<path d="M127.277 11.5103C128.22 9.91379 129.447 7.86199 129.996 6.91098L131.026 5.18193L136.606 14.7917C139.69 20.1164 142.18 24.4996 142.134 24.6149C142.087 24.7302 139.699 24.8415 136.826 24.8251L131.547 24.8795L129.062 20.3982C127.699 17.8746 126.433 15.6916 126.266 15.524C125.546 14.7324 125.674 14.248 127.277 11.5103ZM137.864 4.41477C140.663 4.36764 143.08 4.43524 143.236 4.46435C143.409 4.53388 144.824 6.84405 146.412 9.55838L149.299 14.5365L146.632 19.2571C145.156 21.845 143.912 23.8564 143.843 23.6947C143.717 23.5099 141.467 19.6925 138.827 15.1821C136.146 10.6889 133.707 6.42693 133.356 5.7167L132.764 4.44066L137.864 4.41477Z" fill="#5F5F5F"/>
<path d="M147.236 21.854C148.179 20.2575 149.406 18.2057 149.955 17.2547L150.985 15.5257L156.565 25.1355C159.649 30.4601 162.139 34.8434 162.093 34.9587C162.046 35.074 159.658 35.1853 156.785 35.1688L151.506 35.2232L149.021 30.7419C147.658 28.2184 146.392 26.0354 146.225 25.8678C145.505 25.0762 145.633 24.5918 147.236 21.854ZM157.823 14.7585C160.622 14.7114 163.039 14.779 163.195 14.8081C163.368 14.8776 164.783 17.1878 166.371 19.9021L169.258 24.8803L166.591 29.6008C165.115 32.1888 163.871 34.2001 163.802 34.0385C163.675 33.8536 161.426 30.0362 158.786 25.5258C156.105 21.0327 153.666 16.7707 153.315 16.0604L152.723 14.7844L157.823 14.7585Z" fill="#5F5F5F"/>
<path d="M167.218 11.4829C168.162 9.88644 169.388 7.83464 169.938 6.88364L170.968 5.15459L176.548 14.7644C179.631 20.089 182.122 24.4723 182.075 24.5876C182.029 24.7029 179.64 24.8142 176.767 24.7977L171.488 24.8521L169.003 20.3708C167.64 17.8473 166.375 15.6643 166.208 15.4967C165.488 14.7051 165.616 14.2207 167.218 11.4829ZM177.806 4.38743C180.604 4.34029 183.021 4.40789 183.177 4.43701C183.35 4.50654 184.765 6.81671 186.353 9.53104L189.241 14.5092L186.573 19.2297C185.097 21.8177 183.853 23.8291 183.785 23.6674C183.658 23.4826 181.409 19.6651 178.768 15.1547C176.087 10.6616 173.648 6.39959 173.298 5.68936L172.706 4.41331L177.806 4.38743Z" fill="#5F5F5F"/>
<path d="M187.963 20.7427C188.906 19.1462 190.132 17.0944 190.682 16.1434L191.712 14.4144L197.292 24.0242C200.375 29.3488 202.866 33.732 202.819 33.8473C202.773 33.9626 200.384 34.0739 197.511 34.0575L192.232 34.1119L189.747 29.6306C188.384 27.1071 187.119 24.9241 186.952 24.7565C186.232 23.9648 186.36 23.4804 187.963 20.7427ZM198.55 13.6472C201.348 13.6001 203.765 13.6677 203.921 13.6968C204.094 13.7663 205.509 16.0765 207.097 18.7908L209.985 23.769L207.317 28.4895C205.841 31.0774 204.598 33.0888 204.529 32.9272C204.402 32.7423 202.153 28.9249 199.512 24.4145C196.831 19.9213 194.393 15.6594 194.042 14.9491L193.45 13.6731L198.55 13.6472Z" fill="#5F5F5F"/>
<path d="M208.832 11.4829C209.775 9.88644 211.001 7.83464 211.551 6.88364L212.581 5.15459L218.161 14.7644C221.244 20.089 223.735 24.4723 223.688 24.5876C223.642 24.7029 221.253 24.8142 218.38 24.7977L213.101 24.8521L210.617 20.3708C209.254 17.8473 207.988 15.6643 207.821 15.4967C207.101 14.7051 207.229 14.2207 208.832 11.4829ZM219.419 4.38743C222.217 4.34029 224.635 4.40789 224.79 4.43701C224.963 4.50654 226.379 6.81671 227.966 9.53104L230.854 14.5092L228.186 19.2297C226.711 21.8177 225.467 23.8291 225.398 23.6674C225.271 23.4826 223.022 19.6651 220.381 15.1547C217.701 10.6616 215.262 6.39959 214.911 5.68936L214.319 4.41331L219.419 4.38743Z" fill="#868686"/>
<path d="M229.121 21.4829C230.064 19.8864 231.291 17.8346 231.84 16.8836L232.87 15.1546L238.45 24.7644C241.533 30.089 244.024 34.4723 243.978 34.5876C243.931 34.7029 241.542 34.8142 238.669 34.7977L233.39 34.8521L230.906 30.3708C229.543 27.8473 228.277 25.6643 228.11 25.4967C227.39 24.7051 227.518 24.2207 229.121 21.4829ZM239.708 14.3874C242.506 14.3403 244.924 14.4079 245.079 14.437C245.252 14.5065 246.668 16.8167 248.255 19.531L251.143 24.5092L248.475 29.2297C247 31.8177 245.756 33.8291 245.687 33.6674C245.56 33.4826 243.311 29.6651 240.671 25.1547C237.99 20.6616 235.551 16.3996 235.2 15.6894L234.608 14.4133L239.708 14.3874Z" fill="#868686"/>
<path d="M474.699 21.854C475.642 20.2575 476.869 18.2057 477.418 17.2547L478.448 15.5257L484.028 25.1355C487.111 30.4601 489.602 34.8434 489.556 34.9587C489.509 35.074 487.121 35.1853 484.248 35.1688L478.968 35.2232L476.484 30.7419C475.121 28.2184 473.855 26.0354 473.688 25.8678C472.968 25.0762 473.096 24.5918 474.699 21.854ZM485.286 14.7585C488.085 14.7114 490.502 14.779 490.658 14.8081C490.831 14.8776 492.246 17.1878 493.834 19.9021L496.721 24.8803L494.053 29.6008C492.578 32.1888 491.334 34.2001 491.265 34.0385C491.138 33.8536 488.889 30.0362 486.249 25.5258C483.568 21.0327 481.129 16.7707 480.778 16.0604L480.186 14.7844L485.286 14.7585Z" fill="#E6E6E6"/>
<path d="M495.433 11.5103C496.376 9.91379 497.603 7.86199 498.153 6.91098L499.183 5.18193L504.762 14.7917C507.846 20.1164 510.336 24.4996 510.29 24.6149C510.244 24.7302 507.855 24.8415 504.982 24.8251L499.703 24.8795L497.218 20.3982C495.855 17.8746 494.59 15.6916 494.423 15.524C493.703 14.7324 493.83 14.248 495.433 11.5103ZM506.021 4.41477C508.819 4.36764 511.236 4.43524 511.392 4.46435C511.565 4.53388 512.98 6.84405 514.568 9.55838L517.456 14.5365L514.788 19.2571C513.312 21.845 512.068 23.8564 511.999 23.6947C511.873 23.5099 509.623 19.6925 506.983 15.1821C504.302 10.6889 501.863 6.42693 501.513 5.7167L500.921 4.44066L506.021 4.41477Z" fill="#E6E6E6"/>
<path d="M515.392 21.854C516.335 20.2575 517.562 18.2057 518.112 17.2547L519.142 15.5257L524.721 25.1355C527.805 30.4601 530.295 34.8434 530.249 34.9587C530.203 35.074 527.814 35.1853 524.941 35.1688L519.662 35.2232L517.177 30.7419C515.814 28.2184 514.549 26.0354 514.381 25.8678C513.662 25.0762 513.789 24.5918 515.392 21.854ZM525.98 14.7585C528.778 14.7114 531.195 14.779 531.351 14.8081C531.524 14.8776 532.939 17.1878 534.527 19.9021L537.415 24.8803L534.747 29.6008C533.271 32.1888 532.027 34.2001 531.958 34.0385C531.832 33.8536 529.582 30.0362 526.942 25.5258C524.261 21.0327 521.822 16.7707 521.472 16.0604L520.879 14.7844L525.98 14.7585Z" fill="#E6E6E6"/>
<path d="M535.375 11.4829C536.318 9.88644 537.544 7.83464 538.094 6.88364L539.124 5.15459L544.704 14.7644C547.787 20.089 550.278 24.4723 550.231 24.5876C550.185 24.7029 547.796 24.8142 544.923 24.7977L539.644 24.8521L537.159 20.3708C535.796 17.8473 534.531 15.6643 534.364 15.4967C533.644 14.7051 533.772 14.2207 535.375 11.4829ZM545.962 4.38743C548.76 4.34029 551.178 4.40789 551.333 4.43701C551.506 4.50654 552.922 6.81671 554.509 9.53104L557.397 14.5092L554.729 19.2297C553.254 21.8177 552.01 23.8291 551.941 23.6674C551.814 23.4826 549.565 19.6651 546.924 15.1547C544.244 10.6616 541.805 6.39959 541.454 5.68936L540.862 4.41331L545.962 4.38743Z" fill="#E6E6E6"/>
<path d="M556.119 20.7427C557.062 19.1462 558.289 17.0944 558.838 16.1434L559.868 14.4144L565.448 24.0242C568.531 29.3488 571.022 33.732 570.976 33.8473C570.929 33.9626 568.541 34.0739 565.667 34.0575L560.388 34.1119L557.904 29.6306C556.541 27.1071 555.275 24.9241 555.108 24.7565C554.388 23.9648 554.516 23.4804 556.119 20.7427ZM566.706 13.6472C569.504 13.6001 571.922 13.6677 572.077 13.6968C572.25 13.7663 573.666 16.0765 575.253 18.7908L578.141 23.769L575.473 28.4895C573.998 31.0774 572.754 33.0888 572.685 32.9272C572.558 32.7423 570.309 28.9249 567.669 24.4145C564.988 19.9213 562.549 15.6594 562.198 14.9491L561.606 13.6731L566.706 13.6472Z" fill="#E6E6E6"/>
<path d="M576.988 11.4829C577.931 9.88644 579.158 7.83464 579.707 6.88364L580.737 5.15459L586.317 14.7644C589.4 20.089 591.891 24.4723 591.845 24.5876C591.798 24.7029 589.41 24.8142 586.537 24.7977L581.257 24.8521L578.773 20.3708C577.41 17.8473 576.144 15.6643 575.977 15.4967C575.257 14.7051 575.385 14.2207 576.988 11.4829ZM587.575 4.38743C590.374 4.34029 592.791 4.40789 592.947 4.43701C593.12 4.50654 594.535 6.81671 596.123 9.53104L599.01 14.5092L596.342 19.2297C594.867 21.8177 593.623 23.8291 593.554 23.6674C593.427 23.4826 591.178 19.6651 588.538 15.1547C585.857 10.6616 583.418 6.39959 583.067 5.68936L582.475 4.41331L587.575 4.38743Z" fill="#E6E6E6"/>
<path d="M597.857 21.854C598.8 20.2575 600.027 18.2057 600.577 17.2547L601.606 15.5257L607.186 25.1355C610.27 30.4601 612.76 34.8434 612.714 34.9587C612.668 35.074 610.279 35.1853 607.406 35.1688L602.127 35.2232L599.642 30.7419C598.279 28.2184 597.013 26.0354 596.846 25.8678C596.127 25.0762 596.254 24.5918 597.857 21.854ZM608.445 14.7585C611.243 14.7114 613.66 14.779 613.816 14.8081C613.989 14.8776 615.404 17.1878 616.992 19.9021L619.879 24.8803L617.212 29.6008C615.736 32.1888 614.492 34.2001 614.423 34.0385C614.297 33.8536 612.047 30.0362 609.407 25.5258C606.726 21.0327 604.287 16.7707 603.936 16.0604L603.344 14.7844L608.445 14.7585Z" fill="#E6E6E6"/>
<path d="M618.59 11.5103C619.533 9.91379 620.759 7.86199 621.309 6.91098L622.339 5.18193L627.919 14.7917C631.002 20.1164 633.493 24.4996 633.446 24.6149C633.4 24.7302 631.011 24.8415 628.138 24.8251L622.859 24.8795L620.374 20.3982C619.011 17.8746 617.746 15.6916 617.579 15.524C616.859 14.7324 616.987 14.248 618.59 11.5103ZM629.177 4.41477C631.975 4.36764 634.392 4.43524 634.548 4.46435C634.721 4.53388 636.136 6.84405 637.724 9.55838L640.612 14.5365L637.944 19.2571C636.468 21.845 635.225 23.8564 635.156 23.6947C635.029 23.5099 632.78 19.6925 630.139 15.1821C627.458 10.6889 625.02 6.42693 624.669 5.7167L624.077 4.44066L629.177 4.41477Z" fill="#E6E6E6"/>
<path d="M638.548 21.854C639.492 20.2575 640.718 18.2057 641.268 17.2547L642.298 15.5257L647.878 25.1355C650.961 30.4601 653.452 34.8434 653.405 34.9587C653.359 35.074 650.97 35.1853 648.097 35.1688L642.818 35.2232L640.333 30.7419C638.97 28.2184 637.705 26.0354 637.538 25.8678C636.818 25.0762 636.946 24.5918 638.548 21.854ZM649.136 14.7585C651.934 14.7114 654.351 14.779 654.507 14.8081C654.68 14.8776 656.095 17.1878 657.683 19.9021L660.571 24.8803L657.903 29.6008C656.427 32.1888 655.184 34.2001 655.115 34.0385C654.988 33.8536 652.739 30.0362 650.098 25.5258C647.417 21.0327 644.979 16.7707 644.628 16.0604L644.036 14.7844L649.136 14.7585Z" fill="#E6E6E6"/>
<path d="M658.531 11.4829C659.474 9.88644 660.701 7.83464 661.25 6.88364L662.28 5.15459L667.86 14.7644C670.943 20.089 673.434 24.4723 673.388 24.5876C673.341 24.7029 670.953 24.8142 668.08 24.7977L662.8 24.8521L660.316 20.3708C658.953 17.8473 657.687 15.6643 657.52 15.4967C656.8 14.7051 656.928 14.2207 658.531 11.4829ZM669.118 4.38743C671.917 4.34029 674.334 4.40789 674.49 4.43701C674.663 4.50654 676.078 6.81671 677.666 9.53104L680.553 14.5092L677.885 19.2297C676.41 21.8177 675.166 23.8291 675.097 23.6674C674.97 23.4826 672.721 19.6651 670.081 15.1547C667.4 10.6616 664.961 6.39959 664.61 5.68936L664.018 4.41331L669.118 4.38743Z" fill="#E6E6E6"/>
<path d="M679.275 20.7427C680.218 19.1462 681.445 17.0944 681.995 16.1434L683.024 14.4144L688.604 24.0242C691.688 29.3488 694.178 33.732 694.132 33.8473C694.085 33.9626 691.697 34.0739 688.824 34.0575L683.545 34.1119L681.06 29.6306C679.697 27.1071 678.431 24.9241 678.264 24.7565C677.544 23.9648 677.672 23.4804 679.275 20.7427ZM689.862 13.6472C692.661 13.6001 695.078 13.6677 695.234 13.6968C695.407 13.7663 696.822 16.0765 698.41 18.7908L701.297 23.769L698.63 28.4895C697.154 31.0774 695.91 33.0888 695.841 32.9272C695.715 32.7423 693.465 28.9249 690.825 24.4145C688.144 19.9213 685.705 15.6594 685.354 14.9491L684.762 13.6731L689.862 13.6472Z" fill="#E6E6E6"/>
<path d="M700.144 11.4829C701.087 9.88644 702.314 7.83464 702.864 6.88364L703.894 5.15459L709.473 14.7644C712.557 20.089 715.047 24.4723 715.001 24.5876C714.955 24.7029 712.566 24.8142 709.693 24.7977L704.414 24.8521L701.929 20.3708C700.566 17.8473 699.3 15.6643 699.133 15.4967C698.414 14.7051 698.541 14.2207 700.144 11.4829ZM710.732 4.38743C713.53 4.34029 715.947 4.40789 716.103 4.43701C716.276 4.50654 717.691 6.81671 719.279 9.53104L722.167 14.5092L719.499 19.2297C718.023 21.8177 716.779 23.8291 716.71 23.6674C716.584 23.4826 714.334 19.6651 711.694 15.1547C709.013 10.6616 706.574 6.39959 706.224 5.68936L705.631 4.41331L710.732 4.38743Z" fill="#E6E6E6"/>
<path d="M721.011 21.854C721.955 20.2575 723.181 18.2057 723.731 17.2547L724.761 15.5257L730.341 25.1355C733.424 30.4601 735.915 34.8434 735.868 34.9587C735.822 35.074 733.433 35.1853 730.56 35.1688L725.281 35.2232L722.796 30.7419C721.433 28.2184 720.168 26.0354 720.001 25.8678C719.281 25.0762 719.409 24.5918 721.011 21.854ZM731.599 14.7585C734.397 14.7114 736.814 14.779 736.97 14.8081C737.143 14.8776 738.558 17.1878 740.146 19.9021L743.034 24.8803L740.366 29.6008C738.89 32.1888 737.646 34.2001 737.577 34.0385C737.451 33.8536 735.202 30.0362 732.561 25.5258C729.88 21.0327 727.441 16.7707 727.091 16.0604L726.499 14.7844L731.599 14.7585Z" fill="#E6E6E6"/>
<path d="M741.748 11.5103C742.691 9.91379 743.917 7.86199 744.467 6.91098L745.497 5.18193L751.077 14.7917C754.16 20.1164 756.651 24.4996 756.605 24.6149C756.558 24.7302 754.169 24.8415 751.296 24.8251L746.017 24.8795L743.533 20.3982C742.17 17.8746 740.904 15.6916 740.737 15.524C740.017 14.7324 740.145 14.248 741.748 11.5103ZM752.335 4.41477C755.133 4.36764 757.551 4.43524 757.706 4.46435C757.879 4.53388 759.295 6.84405 760.882 9.55838L763.77 14.5365L761.102 19.2571C759.627 21.845 758.383 23.8564 758.314 23.6947C758.187 23.5099 755.938 19.6925 753.297 15.1821C750.617 10.6889 748.178 6.42693 747.827 5.7167L747.235 4.44066L752.335 4.41477Z" fill="#E6E6E6"/>
<path d="M761.707 21.854C762.65 20.2575 763.876 18.2057 764.426 17.2547L765.456 15.5257L771.036 25.1355C774.119 30.4601 776.61 34.8434 776.563 34.9587C776.517 35.074 774.128 35.1853 771.255 35.1688L765.976 35.2232L763.492 30.7419C762.129 28.2184 760.863 26.0354 760.696 25.8678C759.976 25.0762 760.104 24.5918 761.707 21.854ZM772.294 14.7585C775.092 14.7114 777.51 14.779 777.665 14.8081C777.838 14.8776 779.254 17.1878 780.841 19.9021L783.729 24.8803L781.061 29.6008C779.586 32.1888 778.342 34.2001 778.273 34.0385C778.146 33.8536 775.897 30.0362 773.256 25.5258C770.576 21.0327 768.137 16.7707 767.786 16.0604L767.194 14.7844L772.294 14.7585Z" fill="#E6E6E6"/>
<path d="M781.689 11.4829C782.632 9.88644 783.859 7.83464 784.409 6.88364L785.439 5.15459L791.018 14.7644C794.102 20.089 796.592 24.4723 796.546 24.5876C796.5 24.7029 794.111 24.8142 791.238 24.7977L785.959 24.8521L783.474 20.3708C782.111 17.8473 780.845 15.6643 780.678 15.4967C779.959 14.7051 780.086 14.2207 781.689 11.4829ZM792.277 4.38743C795.075 4.34029 797.492 4.40789 797.648 4.43701C797.821 4.50654 799.236 6.81671 800.824 9.53104L803.711 14.5092L801.044 19.2297C799.568 21.8177 798.324 23.8291 798.255 23.6674C798.129 23.4826 795.879 19.6651 793.239 15.1547C790.558 10.6616 788.119 6.39959 787.768 5.68936L787.176 4.41331L792.277 4.38743Z" fill="#E6E6E6"/>
<path d="M802.433 20.7427C803.376 19.1462 804.603 17.0944 805.153 16.1434L806.183 14.4144L811.762 24.0242C814.846 29.3488 817.336 33.732 817.29 33.8473C817.244 33.9626 814.855 34.0739 811.982 34.0575L806.703 34.1119L804.218 29.6306C802.855 27.1071 801.59 24.9241 801.423 24.7565C800.703 23.9648 800.83 23.4804 802.433 20.7427ZM813.021 13.6472C815.819 13.6001 818.236 13.6677 818.392 13.6968C818.565 13.7663 819.98 16.0765 821.568 18.7908L824.456 23.769L821.788 28.4895C820.312 31.0774 819.068 33.0888 818.999 32.9272C818.873 32.7423 816.623 28.9249 813.983 24.4145C811.302 19.9213 808.863 15.6594 808.513 14.9491L807.921 13.6731L813.021 13.6472Z" fill="#E6E6E6"/>
<path d="M823.302 11.4829C824.246 9.88644 825.472 7.83464 826.022 6.88364L827.052 5.15459L832.632 14.7644C835.715 20.089 838.206 24.4723 838.159 24.5876C838.113 24.7029 835.724 24.8142 832.851 24.7977L827.572 24.8521L825.087 20.3708C823.724 17.8473 822.459 15.6643 822.292 15.4967C821.572 14.7051 821.7 14.2207 823.302 11.4829ZM833.89 4.38743C836.688 4.34029 839.105 4.40789 839.261 4.43701C839.434 4.50654 840.849 6.81671 842.437 9.53104L845.325 14.5092L842.657 19.2297C841.181 21.8177 839.937 23.8291 839.869 23.6674C839.742 23.4826 837.493 19.6651 834.852 15.1547C832.171 10.6616 829.732 6.39959 829.382 5.68936L828.79 4.41331L833.89 4.38743Z" fill="#E6E6E6"/>
<path d="M844.172 21.854C845.115 20.2575 846.341 18.2057 846.891 17.2547L847.921 15.5257L853.501 25.1355C856.584 30.4601 859.075 34.8434 859.028 34.9587C858.982 35.074 856.593 35.1853 853.72 35.1688L848.441 35.2232L845.956 30.7419C844.593 28.2184 843.328 26.0354 843.161 25.8678C842.441 25.0762 842.569 24.5918 844.172 21.854ZM854.759 14.7585C857.557 14.7114 859.974 14.779 860.13 14.8081C860.303 14.8776 861.718 17.1878 863.306 19.9021L866.194 24.8803L863.526 29.6008C862.05 32.1888 860.807 34.2001 860.738 34.0385C860.611 33.8536 858.362 30.0362 855.721 25.5258C853.04 21.0327 850.602 16.7707 850.251 16.0604L849.659 14.7844L854.759 14.7585Z" fill="#E6E6E6"/>
<path d="M864.904 11.5103C865.847 9.91379 867.074 7.86199 867.623 6.91098L868.653 5.18193L874.233 14.7917C877.316 20.1164 879.807 24.4996 879.761 24.6149C879.714 24.7302 877.326 24.8415 874.453 24.8251L869.173 24.8795L866.689 20.3982C865.326 17.8746 864.06 15.6916 863.893 15.524C863.173 14.7324 863.301 14.248 864.904 11.5103ZM875.491 4.41477C878.29 4.36764 880.707 4.43524 880.863 4.46435C881.036 4.53388 882.451 6.84405 884.039 9.55838L886.926 14.5365L884.259 19.2571C882.783 21.845 881.539 23.8564 881.47 23.6947C881.343 23.5099 879.094 19.6925 876.454 15.1821C873.773 10.6889 871.334 6.42693 870.983 5.7167L870.391 4.44066L875.491 4.41477Z" fill="#E6E6E6"/>
<path d="M884.863 21.854C885.806 20.2575 887.033 18.2057 887.582 17.2547L888.612 15.5257L894.192 25.1355C897.275 30.4601 899.766 34.8434 899.72 34.9587C899.673 35.074 897.285 35.1853 894.412 35.1688L889.132 35.2232L886.648 30.7419C885.285 28.2184 884.019 26.0354 883.852 25.8678C883.132 25.0762 883.26 24.5918 884.863 21.854ZM895.45 14.7585C898.249 14.7114 900.666 14.779 900.822 14.8081C900.995 14.8776 902.41 17.1878 903.998 19.9021L906.885 24.8803L904.217 29.6008C902.742 32.1888 901.498 34.2001 901.429 34.0385C901.302 33.8536 899.053 30.0362 896.413 25.5258C893.732 21.0327 891.293 16.7707 890.942 16.0604L890.35 14.7844L895.45 14.7585Z" fill="#E6E6E6"/>
<path d="M904.845 11.4829C905.789 9.88644 907.015 7.83464 907.565 6.88364L908.595 5.15459L914.175 14.7644C917.258 20.089 919.749 24.4723 919.702 24.5876C919.656 24.7029 917.267 24.8142 914.394 24.7977L909.115 24.8521L906.63 20.3708C905.267 17.8473 904.002 15.6643 903.835 15.4967C903.115 14.7051 903.243 14.2207 904.845 11.4829ZM915.433 4.38743C918.231 4.34029 920.648 4.40789 920.804 4.43701C920.977 4.50654 922.392 6.81671 923.98 9.53104L926.868 14.5092L924.2 19.2297C922.724 21.8177 921.48 23.8291 921.411 23.6674C921.285 23.4826 919.036 19.6651 916.395 15.1547C913.714 10.6616 911.275 6.39959 910.925 5.68936L910.333 4.41331L915.433 4.38743Z" fill="#E6E6E6"/>
<path d="M925.59 20.7427C926.533 19.1462 927.759 17.0944 928.309 16.1434L929.339 14.4144L934.919 24.0242C938.002 29.3488 940.493 33.732 940.446 33.8473C940.4 33.9626 938.011 34.0739 935.138 34.0575L929.859 34.1119L927.374 29.6306C926.011 27.1071 924.746 24.9241 924.579 24.7565C923.859 23.9648 923.987 23.4804 925.59 20.7427ZM936.177 13.6472C938.975 13.6001 941.392 13.6677 941.548 13.6968C941.721 13.7663 943.136 16.0765 944.724 18.7908L947.612 23.769L944.944 28.4895C943.468 31.0774 942.225 33.0888 942.156 32.9272C942.029 32.7423 939.78 28.9249 937.139 24.4145C934.458 19.9213 932.02 15.6594 931.669 14.9491L931.077 13.6731L936.177 13.6472Z" fill="#E6E6E6"/>
<path d="M946.457 11.4829C947.4 9.88644 948.626 7.83464 949.176 6.88364L950.206 5.15459L955.786 14.7644C958.869 20.089 961.36 24.4723 961.313 24.5876C961.267 24.7029 958.878 24.8142 956.005 24.7977L950.726 24.8521L948.242 20.3708C946.879 17.8473 945.613 15.6643 945.446 15.4967C944.726 14.7051 944.854 14.2207 946.457 11.4829ZM957.044 4.38743C959.842 4.34029 962.26 4.40789 962.415 4.43701C962.588 4.50654 964.004 6.81671 965.591 9.53104L968.479 14.5092L965.811 19.2297C964.336 21.8177 963.092 23.8291 963.023 23.6674C962.896 23.4826 960.647 19.6651 958.006 15.1547C955.326 10.6616 952.887 6.39959 952.536 5.68936L951.944 4.41331L957.044 4.38743Z" fill="#E6E6E6"/>
<path d="M967.326 21.854C968.269 20.2575 969.496 18.2057 970.045 17.2547L971.075 15.5257L976.655 25.1355C979.738 30.4601 982.229 34.8434 982.183 34.9587C982.136 35.074 979.748 35.1853 976.874 35.1688L971.595 35.2232L969.111 30.7419C967.748 28.2184 966.482 26.0354 966.315 25.8678C965.595 25.0762 965.723 24.5918 967.326 21.854ZM977.913 14.7585C980.711 14.7114 983.129 14.779 983.284 14.8081C983.457 14.8776 984.873 17.1878 986.46 19.9021L989.348 24.8803L986.68 29.6008C985.205 32.1888 983.961 34.2001 983.892 34.0385C983.765 33.8536 981.516 30.0362 978.876 25.5258C976.195 21.0327 973.756 16.7707 973.405 16.0604L972.813 14.7844L977.913 14.7585Z" fill="#E6E6E6"/>
<path d="M988.062 11.4829C989.005 9.88644 990.232 7.83464 990.782 6.88364L991.812 5.15459L997.391 14.7644C1000.47 20.089 1002.97 24.4723 1002.92 24.5876C1002.87 24.7029 1000.48 24.8142 997.611 24.7977L992.332 24.8521L989.847 20.3708C988.484 17.8473 987.218 15.6643 987.051 15.4967C986.332 14.7051 986.459 14.2207 988.062 11.4829ZM998.65 4.38743C1001.45 4.34029 1003.87 4.40789 1004.02 4.43701C1004.19 4.50654 1005.61 6.81671 1007.2 9.53104L1010.08 14.5092L1007.42 19.2297C1005.94 21.8177 1004.7 23.8291 1004.63 23.6674C1004.5 23.4826 1002.25 19.6651 999.612 15.1547C996.931 10.6616 994.492 6.39959 994.141 5.68936L993.549 4.41331L998.65 4.38743Z" fill="#E6E6E6"/>
<path d="M1008.81 20.7427C1009.75 19.1462 1010.98 17.0944 1011.53 16.1434L1012.56 14.4144L1018.14 24.0242C1021.22 29.3488 1023.71 33.732 1023.66 33.8473C1023.62 33.9626 1021.23 34.0739 1018.35 34.0575L1013.08 34.1119L1010.59 29.6306C1009.23 27.1071 1007.96 24.9241 1007.8 24.7565C1007.08 23.9648 1007.2 23.4804 1008.81 20.7427ZM1019.39 13.6472C1022.19 13.6001 1024.61 13.6677 1024.76 13.6968C1024.94 13.7663 1026.35 16.0765 1027.94 18.7908L1030.83 23.769L1028.16 28.4895C1026.69 31.0774 1025.44 33.0888 1025.37 32.9272C1025.25 32.7423 1023 28.9249 1020.36 24.4145C1017.68 19.9213 1015.24 15.6594 1014.89 14.9491L1014.29 13.6731L1019.39 13.6472Z" fill="#E6E6E6"/>
<path d="M1029.67 11.4829C1030.62 9.88644 1031.84 7.83464 1032.39 6.88364L1033.42 5.15459L1039 14.7644C1042.09 20.089 1044.58 24.4723 1044.53 24.5876C1044.48 24.7029 1042.1 24.8142 1039.22 24.7977L1033.94 24.8521L1031.46 20.3708C1030.1 17.8473 1028.83 15.6643 1028.66 15.4967C1027.94 14.7051 1028.07 14.2207 1029.67 11.4829ZM1040.26 4.38743C1043.06 4.34029 1045.48 4.40789 1045.63 4.43701C1045.81 4.50654 1047.22 6.81671 1048.81 9.53104L1051.7 14.5092L1049.03 19.2297C1047.55 21.8177 1046.31 23.8291 1046.24 23.6674C1046.11 23.4826 1043.86 19.6651 1041.22 15.1547C1038.54 10.6616 1036.1 6.39959 1035.75 5.68936L1035.16 4.41331L1040.26 4.38743Z" fill="#E6E6E6"/>
<path d="M1050.54 21.854C1051.49 20.2575 1052.71 18.2057 1053.26 17.2547L1054.29 15.5257L1059.87 25.1355C1062.96 30.4601 1065.45 34.8434 1065.4 34.9587C1065.35 35.074 1062.96 35.1853 1060.09 35.1688L1054.81 35.2232L1052.33 30.7419C1050.96 28.2184 1049.7 26.0354 1049.53 25.8678C1048.81 25.0762 1048.94 24.5918 1050.54 21.854ZM1061.13 14.7585C1063.93 14.7114 1066.35 14.779 1066.5 14.8081C1066.67 14.8776 1068.09 17.1878 1069.68 19.9021L1072.57 24.8803L1069.9 29.6008C1068.42 32.1888 1067.18 34.2001 1067.11 34.0385C1066.98 33.8536 1064.73 30.0362 1062.09 25.5258C1059.41 21.0327 1056.97 16.7707 1056.62 16.0604L1056.03 14.7844L1061.13 14.7585Z" fill="#E6E6E6"/>
<path d="M1070.83 11.4829C1071.77 9.88644 1073 7.83464 1073.55 6.88364L1074.58 5.15459L1080.16 14.7644C1083.24 20.089 1085.73 24.4723 1085.68 24.5876C1085.64 24.7029 1083.25 24.8142 1080.38 24.7977L1075.1 24.8521L1072.61 20.3708C1071.25 17.8473 1069.98 15.6643 1069.82 15.4967C1069.1 14.7051 1069.23 14.2207 1070.83 11.4829ZM1081.42 4.38743C1084.21 4.34029 1086.63 4.40789 1086.79 4.43701C1086.96 4.50654 1088.37 6.81671 1089.96 9.53104L1092.85 14.5092L1090.18 19.2297C1088.71 21.8177 1087.46 23.8291 1087.39 23.6674C1087.27 23.4826 1085.02 19.6651 1082.38 15.1547C1079.7 10.6616 1077.26 6.39959 1076.91 5.68936L1076.32 4.41331L1081.42 4.38743Z" fill="#868686"/>
<path d="M1091.57 20.7427C1092.52 19.1462 1093.74 17.0944 1094.29 16.1434L1095.32 14.4144L1100.9 24.0242C1103.98 29.3488 1106.48 33.732 1106.43 33.8473C1106.38 33.9626 1103.99 34.0739 1101.12 34.0575L1095.84 34.1119L1093.36 29.6306C1091.99 27.1071 1090.73 24.9241 1090.56 24.7565C1089.84 23.9648 1089.97 23.4804 1091.57 20.7427ZM1102.16 13.6472C1104.96 13.6001 1107.37 13.6677 1107.53 13.6968C1107.7 13.7663 1109.12 16.0765 1110.71 18.7908L1113.59 23.769L1110.93 28.4895C1109.45 31.0774 1108.21 33.0888 1108.14 32.9272C1108.01 32.7423 1105.76 28.9249 1103.12 24.4145C1100.44 19.9213 1098 15.6594 1097.65 14.9491L1097.06 13.6731L1102.16 13.6472Z" fill="#868686"/>
<path d="M1112.44 11.4829C1113.38 9.88644 1114.61 7.83464 1115.16 6.88364L1116.19 5.15459L1121.77 14.7644C1124.85 20.089 1127.34 24.4723 1127.3 24.5876C1127.25 24.7029 1124.86 24.8142 1121.99 24.7977L1116.71 24.8521L1114.23 20.3708C1112.86 17.8473 1111.6 15.6643 1111.43 15.4967C1110.71 14.7051 1110.84 14.2207 1112.44 11.4829ZM1123.03 4.38743C1125.83 4.34029 1128.24 4.40789 1128.4 4.43701C1128.57 4.50654 1129.99 6.81671 1131.58 9.53104L1134.46 14.5092L1131.8 19.2297C1130.32 21.8177 1129.08 23.8291 1129.01 23.6674C1128.88 23.4826 1126.63 19.6651 1123.99 15.1547C1121.31 10.6616 1118.87 6.39959 1118.52 5.68936L1117.93 4.41331L1123.03 4.38743Z" fill="#868686"/>
<path d="M1132.99 21.854C1133.93 20.2575 1135.16 18.2057 1135.71 17.2547L1136.74 15.5257L1142.32 25.1355C1145.4 30.4601 1147.89 34.8434 1147.85 34.9587C1147.8 35.074 1145.41 35.1853 1142.54 35.1688L1137.26 35.2232L1134.77 30.7419C1133.41 28.2184 1132.15 26.0354 1131.98 25.8678C1131.26 25.0762 1131.39 24.5918 1132.99 21.854ZM1143.58 14.7585C1146.38 14.7114 1148.79 14.779 1148.95 14.8081C1149.12 14.8776 1150.54 17.1878 1152.12 19.9021L1155.01 24.8803L1152.34 29.6008C1150.87 32.1888 1149.63 34.2001 1149.56 34.0385C1149.43 33.8536 1147.18 30.0362 1144.54 25.5258C1141.86 21.0327 1139.42 16.7707 1139.07 16.0604L1138.48 14.7844L1143.58 14.7585Z" fill="#929292"/>
<path d="M1132.99 21.854C1133.93 20.2575 1135.16 18.2057 1135.71 17.2547L1136.74 15.5257L1142.32 25.1355C1145.4 30.4601 1147.89 34.8434 1147.85 34.9587C1147.8 35.074 1145.41 35.1853 1142.54 35.1688L1137.26 35.2232L1134.77 30.7419C1133.41 28.2184 1132.15 26.0354 1131.98 25.8678C1131.26 25.0762 1131.39 24.5918 1132.99 21.854ZM1143.58 14.7585C1146.38 14.7114 1148.79 14.779 1148.95 14.8081C1149.12 14.8776 1150.54 17.1878 1152.12 19.9021L1155.01 24.8803L1152.34 29.6008C1150.87 32.1888 1149.63 34.2001 1149.56 34.0385C1149.43 33.8536 1147.18 30.0362 1144.54 25.5258C1141.86 21.0327 1139.42 16.7707 1139.07 16.0604L1138.48 14.7844L1143.58 14.7585Z" fill="#929292"/>
<path d="M1132.99 21.854C1133.93 20.2575 1135.16 18.2057 1135.71 17.2547L1136.74 15.5257L1142.32 25.1355C1145.4 30.4601 1147.89 34.8434 1147.85 34.9587C1147.8 35.074 1145.41 35.1853 1142.54 35.1688L1137.26 35.2232L1134.77 30.7419C1133.41 28.2184 1132.15 26.0354 1131.98 25.8678C1131.26 25.0762 1131.39 24.5918 1132.99 21.854ZM1143.58 14.7585C1146.38 14.7114 1148.79 14.779 1148.95 14.8081C1149.12 14.8776 1150.54 17.1878 1152.12 19.9021L1155.01 24.8803L1152.34 29.6008C1150.87 32.1888 1149.63 34.2001 1149.56 34.0385C1149.43 33.8536 1147.18 30.0362 1144.54 25.5258C1141.86 21.0327 1139.42 16.7707 1139.07 16.0604L1138.48 14.7844L1143.58 14.7585Z" fill="#929292"/>
<path d="M1132.99 21.854C1133.93 20.2575 1135.16 18.2057 1135.71 17.2547L1136.74 15.5257L1142.32 25.1355C1145.4 30.4601 1147.89 34.8434 1147.85 34.9587C1147.8 35.074 1145.41 35.1853 1142.54 35.1688L1137.26 35.2232L1134.77 30.7419C1133.41 28.2184 1132.15 26.0354 1131.98 25.8678C1131.26 25.0762 1131.39 24.5918 1132.99 21.854ZM1143.58 14.7585C1146.38 14.7114 1148.79 14.779 1148.95 14.8081C1149.12 14.8776 1150.54 17.1878 1152.12 19.9021L1155.01 24.8803L1152.34 29.6008C1150.87 32.1888 1149.63 34.2001 1149.56 34.0385C1149.43 33.8536 1147.18 30.0362 1144.54 25.5258C1141.86 21.0327 1139.42 16.7707 1139.07 16.0604L1138.48 14.7844L1143.58 14.7585Z" fill="#5F5F5F"/>
<path d="M1153.28 11.4829C1154.22 9.88644 1155.44 7.83464 1155.99 6.88364L1157.02 5.15459L1162.6 14.7644C1165.69 20.089 1168.18 24.4723 1168.13 24.5876C1168.09 24.7029 1165.7 24.8142 1162.82 24.7977L1157.54 24.8521L1155.06 20.3708C1153.7 17.8473 1152.43 15.6643 1152.26 15.4967C1151.54 14.7051 1151.67 14.2207 1153.28 11.4829ZM1163.86 4.38743C1166.66 4.34029 1169.08 4.40789 1169.23 4.43701C1169.41 4.50654 1170.82 6.81671 1172.41 9.53104L1175.3 14.5092L1172.63 19.2297C1171.15 21.8177 1169.91 23.8291 1169.84 23.6674C1169.71 23.4826 1167.47 19.6651 1164.82 15.1547C1162.14 10.6616 1159.71 6.39959 1159.35 5.68936L1158.76 4.41331L1163.86 4.38743Z" fill="#929292"/>
<path d="M1153.28 11.4829C1154.22 9.88644 1155.44 7.83464 1155.99 6.88364L1157.02 5.15459L1162.6 14.7644C1165.69 20.089 1168.18 24.4723 1168.13 24.5876C1168.09 24.7029 1165.7 24.8142 1162.82 24.7977L1157.54 24.8521L1155.06 20.3708C1153.7 17.8473 1152.43 15.6643 1152.26 15.4967C1151.54 14.7051 1151.67 14.2207 1153.28 11.4829ZM1163.86 4.38743C1166.66 4.34029 1169.08 4.40789 1169.23 4.43701C1169.41 4.50654 1170.82 6.81671 1172.41 9.53104L1175.3 14.5092L1172.63 19.2297C1171.15 21.8177 1169.91 23.8291 1169.84 23.6674C1169.71 23.4826 1167.47 19.6651 1164.82 15.1547C1162.14 10.6616 1159.71 6.39959 1159.35 5.68936L1158.76 4.41331L1163.86 4.38743Z" fill="#929292"/>
<path d="M1153.28 11.4829C1154.22 9.88644 1155.44 7.83464 1155.99 6.88364L1157.02 5.15459L1162.6 14.7644C1165.69 20.089 1168.18 24.4723 1168.13 24.5876C1168.09 24.7029 1165.7 24.8142 1162.82 24.7977L1157.54 24.8521L1155.06 20.3708C1153.7 17.8473 1152.43 15.6643 1152.26 15.4967C1151.54 14.7051 1151.67 14.2207 1153.28 11.4829ZM1163.86 4.38743C1166.66 4.34029 1169.08 4.40789 1169.23 4.43701C1169.41 4.50654 1170.82 6.81671 1172.41 9.53104L1175.3 14.5092L1172.63 19.2297C1171.15 21.8177 1169.91 23.8291 1169.84 23.6674C1169.71 23.4826 1167.47 19.6651 1164.82 15.1547C1162.14 10.6616 1159.71 6.39959 1159.35 5.68936L1158.76 4.41331L1163.86 4.38743Z" fill="#929292"/>
<path d="M1153.28 11.4829C1154.22 9.88644 1155.44 7.83464 1155.99 6.88364L1157.02 5.15459L1162.6 14.7644C1165.69 20.089 1168.18 24.4723 1168.13 24.5876C1168.09 24.7029 1165.7 24.8142 1162.82 24.7977L1157.54 24.8521L1155.06 20.3708C1153.7 17.8473 1152.43 15.6643 1152.26 15.4967C1151.54 14.7051 1151.67 14.2207 1153.28 11.4829ZM1163.86 4.38743C1166.66 4.34029 1169.08 4.40789 1169.23 4.43701C1169.41 4.50654 1170.82 6.81671 1172.41 9.53104L1175.3 14.5092L1172.63 19.2297C1171.15 21.8177 1169.91 23.8291 1169.84 23.6674C1169.71 23.4826 1167.47 19.6651 1164.82 15.1547C1162.14 10.6616 1159.71 6.39959 1159.35 5.68936L1158.76 4.41331L1163.86 4.38743Z" fill="#5F5F5F"/>
<path d="M1174.02 20.7427C1174.96 19.1462 1176.19 17.0944 1176.74 16.1434L1177.77 14.4144L1183.35 24.0242C1186.43 29.3488 1188.92 33.732 1188.88 33.8473C1188.83 33.9626 1186.44 34.0739 1183.57 34.0575L1178.29 34.1119L1175.8 29.6306C1174.44 27.1071 1173.18 24.9241 1173.01 24.7565C1172.29 23.9648 1172.42 23.4804 1174.02 20.7427ZM1184.61 13.6472C1187.4 13.6001 1189.82 13.6677 1189.98 13.6968C1190.15 13.7663 1191.57 16.0765 1193.15 18.7908L1196.04 23.769L1193.37 28.4895C1191.9 31.0774 1190.65 33.0888 1190.59 32.9272C1190.46 32.7423 1188.21 28.9249 1185.57 24.4145C1182.89 19.9213 1180.45 15.6594 1180.1 14.9491L1179.51 13.6731L1184.61 13.6472Z" fill="#929292"/>
<path d="M1174.02 20.7427C1174.96 19.1462 1176.19 17.0944 1176.74 16.1434L1177.77 14.4144L1183.35 24.0242C1186.43 29.3488 1188.92 33.732 1188.88 33.8473C1188.83 33.9626 1186.44 34.0739 1183.57 34.0575L1178.29 34.1119L1175.8 29.6306C1174.44 27.1071 1173.18 24.9241 1173.01 24.7565C1172.29 23.9648 1172.42 23.4804 1174.02 20.7427ZM1184.61 13.6472C1187.4 13.6001 1189.82 13.6677 1189.98 13.6968C1190.15 13.7663 1191.57 16.0765 1193.15 18.7908L1196.04 23.769L1193.37 28.4895C1191.9 31.0774 1190.65 33.0888 1190.59 32.9272C1190.46 32.7423 1188.21 28.9249 1185.57 24.4145C1182.89 19.9213 1180.45 15.6594 1180.1 14.9491L1179.51 13.6731L1184.61 13.6472Z" fill="#929292"/>
<path d="M1174.02 20.7427C1174.96 19.1462 1176.19 17.0944 1176.74 16.1434L1177.77 14.4144L1183.35 24.0242C1186.43 29.3488 1188.92 33.732 1188.88 33.8473C1188.83 33.9626 1186.44 34.0739 1183.57 34.0575L1178.29 34.1119L1175.8 29.6306C1174.44 27.1071 1173.18 24.9241 1173.01 24.7565C1172.29 23.9648 1172.42 23.4804 1174.02 20.7427ZM1184.61 13.6472C1187.4 13.6001 1189.82 13.6677 1189.98 13.6968C1190.15 13.7663 1191.57 16.0765 1193.15 18.7908L1196.04 23.769L1193.37 28.4895C1191.9 31.0774 1190.65 33.0888 1190.59 32.9272C1190.46 32.7423 1188.21 28.9249 1185.57 24.4145C1182.89 19.9213 1180.45 15.6594 1180.1 14.9491L1179.51 13.6731L1184.61 13.6472Z" fill="#929292"/>
<path d="M1174.02 20.7427C1174.96 19.1462 1176.19 17.0944 1176.74 16.1434L1177.77 14.4144L1183.35 24.0242C1186.43 29.3488 1188.92 33.732 1188.88 33.8473C1188.83 33.9626 1186.44 34.0739 1183.57 34.0575L1178.29 34.1119L1175.8 29.6306C1174.44 27.1071 1173.18 24.9241 1173.01 24.7565C1172.29 23.9648 1172.42 23.4804 1174.02 20.7427ZM1184.61 13.6472C1187.4 13.6001 1189.82 13.6677 1189.98 13.6968C1190.15 13.7663 1191.57 16.0765 1193.15 18.7908L1196.04 23.769L1193.37 28.4895C1191.9 31.0774 1190.65 33.0888 1190.59 32.9272C1190.46 32.7423 1188.21 28.9249 1185.57 24.4145C1182.89 19.9213 1180.45 15.6594 1180.1 14.9491L1179.51 13.6731L1184.61 13.6472Z" fill="#5F5F5F"/>
<path d="M1194.89 11.4829C1195.83 9.88644 1197.06 7.83464 1197.61 6.88364L1198.64 5.15459L1204.22 14.7644C1207.3 20.089 1209.79 24.4723 1209.75 24.5876C1209.7 24.7029 1207.31 24.8142 1204.44 24.7977L1199.16 24.8521L1196.67 20.3708C1195.31 17.8473 1194.04 15.6643 1193.88 15.4967C1193.16 14.7051 1193.29 14.2207 1194.89 11.4829ZM1205.48 4.38743C1208.27 4.34029 1210.69 4.40789 1210.85 4.43701C1211.02 4.50654 1212.44 6.81671 1214.02 9.53104L1216.91 14.5092L1214.24 19.2297C1212.77 21.8177 1211.52 23.8291 1211.45 23.6674C1211.33 23.4826 1209.08 19.6651 1206.44 15.1547C1203.76 10.6616 1201.32 6.39959 1200.97 5.68936L1200.38 4.41331L1205.48 4.38743Z" fill="#929292"/>
<path d="M1194.89 11.4829C1195.83 9.88644 1197.06 7.83464 1197.61 6.88364L1198.64 5.15459L1204.22 14.7644C1207.3 20.089 1209.79 24.4723 1209.75 24.5876C1209.7 24.7029 1207.31 24.8142 1204.44 24.7977L1199.16 24.8521L1196.67 20.3708C1195.31 17.8473 1194.04 15.6643 1193.88 15.4967C1193.16 14.7051 1193.29 14.2207 1194.89 11.4829ZM1205.48 4.38743C1208.27 4.34029 1210.69 4.40789 1210.85 4.43701C1211.02 4.50654 1212.44 6.81671 1214.02 9.53104L1216.91 14.5092L1214.24 19.2297C1212.77 21.8177 1211.52 23.8291 1211.45 23.6674C1211.33 23.4826 1209.08 19.6651 1206.44 15.1547C1203.76 10.6616 1201.32 6.39959 1200.97 5.68936L1200.38 4.41331L1205.48 4.38743Z" fill="#929292"/>
<path d="M1194.89 11.4829C1195.83 9.88644 1197.06 7.83464 1197.61 6.88364L1198.64 5.15459L1204.22 14.7644C1207.3 20.089 1209.79 24.4723 1209.75 24.5876C1209.7 24.7029 1207.31 24.8142 1204.44 24.7977L1199.16 24.8521L1196.67 20.3708C1195.31 17.8473 1194.04 15.6643 1193.88 15.4967C1193.16 14.7051 1193.29 14.2207 1194.89 11.4829ZM1205.48 4.38743C1208.27 4.34029 1210.69 4.40789 1210.85 4.43701C1211.02 4.50654 1212.44 6.81671 1214.02 9.53104L1216.91 14.5092L1214.24 19.2297C1212.77 21.8177 1211.52 23.8291 1211.45 23.6674C1211.33 23.4826 1209.08 19.6651 1206.44 15.1547C1203.76 10.6616 1201.32 6.39959 1200.97 5.68936L1200.38 4.41331L1205.48 4.38743Z" fill="#929292"/>
<path d="M1194.89 11.4829C1195.83 9.88644 1197.06 7.83464 1197.61 6.88364L1198.64 5.15459L1204.22 14.7644C1207.3 20.089 1209.79 24.4723 1209.75 24.5876C1209.7 24.7029 1207.31 24.8142 1204.44 24.7977L1199.16 24.8521L1196.67 20.3708C1195.31 17.8473 1194.04 15.6643 1193.88 15.4967C1193.16 14.7051 1193.29 14.2207 1194.89 11.4829ZM1205.48 4.38743C1208.27 4.34029 1210.69 4.40789 1210.85 4.43701C1211.02 4.50654 1212.44 6.81671 1214.02 9.53104L1216.91 14.5092L1214.24 19.2297C1212.77 21.8177 1211.52 23.8291 1211.45 23.6674C1211.33 23.4826 1209.08 19.6651 1206.44 15.1547C1203.76 10.6616 1201.32 6.39959 1200.97 5.68936L1200.38 4.41331L1205.48 4.38743Z" fill="#5F5F5F"/>
<path d="M1215.12 21.854C1216.06 20.2575 1217.29 18.2057 1217.84 17.2547L1218.87 15.5257L1224.45 25.1355C1227.53 30.4601 1230.02 34.8434 1229.98 34.9587C1229.93 35.074 1227.54 35.1853 1224.67 35.1688L1219.39 35.2232L1216.91 30.7419C1215.54 28.2184 1214.28 26.0354 1214.11 25.8678C1213.39 25.0762 1213.52 24.5918 1215.12 21.854ZM1225.71 14.7585C1228.51 14.7114 1230.92 14.779 1231.08 14.8081C1231.25 14.8776 1232.67 17.1878 1234.26 19.9021L1237.14 24.8803L1234.48 29.6008C1233 32.1888 1231.76 34.2001 1231.69 34.0385C1231.56 33.8536 1229.31 30.0362 1226.67 25.5258C1223.99 21.0327 1221.55 16.7707 1221.2 16.0604L1220.61 14.7844L1225.71 14.7585Z" fill="#929292"/>
<path d="M1215.12 21.854C1216.06 20.2575 1217.29 18.2057 1217.84 17.2547L1218.87 15.5257L1224.45 25.1355C1227.53 30.4601 1230.02 34.8434 1229.98 34.9587C1229.93 35.074 1227.54 35.1853 1224.67 35.1688L1219.39 35.2232L1216.91 30.7419C1215.54 28.2184 1214.28 26.0354 1214.11 25.8678C1213.39 25.0762 1213.52 24.5918 1215.12 21.854ZM1225.71 14.7585C1228.51 14.7114 1230.92 14.779 1231.08 14.8081C1231.25 14.8776 1232.67 17.1878 1234.26 19.9021L1237.14 24.8803L1234.48 29.6008C1233 32.1888 1231.76 34.2001 1231.69 34.0385C1231.56 33.8536 1229.31 30.0362 1226.67 25.5258C1223.99 21.0327 1221.55 16.7707 1221.2 16.0604L1220.61 14.7844L1225.71 14.7585Z" fill="#929292"/>
<path d="M1215.12 21.854C1216.06 20.2575 1217.29 18.2057 1217.84 17.2547L1218.87 15.5257L1224.45 25.1355C1227.53 30.4601 1230.02 34.8434 1229.98 34.9587C1229.93 35.074 1227.54 35.1853 1224.67 35.1688L1219.39 35.2232L1216.91 30.7419C1215.54 28.2184 1214.28 26.0354 1214.11 25.8678C1213.39 25.0762 1213.52 24.5918 1215.12 21.854ZM1225.71 14.7585C1228.51 14.7114 1230.92 14.779 1231.08 14.8081C1231.25 14.8776 1232.67 17.1878 1234.26 19.9021L1237.14 24.8803L1234.48 29.6008C1233 32.1888 1231.76 34.2001 1231.69 34.0385C1231.56 33.8536 1229.31 30.0362 1226.67 25.5258C1223.99 21.0327 1221.55 16.7707 1221.2 16.0604L1220.61 14.7844L1225.71 14.7585Z" fill="#929292"/>
<path d="M1215.12 21.854C1216.06 20.2575 1217.29 18.2057 1217.84 17.2547L1218.87 15.5257L1224.45 25.1355C1227.53 30.4601 1230.02 34.8434 1229.98 34.9587C1229.93 35.074 1227.54 35.1853 1224.67 35.1688L1219.39 35.2232L1216.91 30.7419C1215.54 28.2184 1214.28 26.0354 1214.11 25.8678C1213.39 25.0762 1213.52 24.5918 1215.12 21.854ZM1225.71 14.7585C1228.51 14.7114 1230.92 14.779 1231.08 14.8081C1231.25 14.8776 1232.67 17.1878 1234.26 19.9021L1237.14 24.8803L1234.48 29.6008C1233 32.1888 1231.76 34.2001 1231.69 34.0385C1231.56 33.8536 1229.31 30.0362 1226.67 25.5258C1223.99 21.0327 1221.55 16.7707 1221.2 16.0604L1220.61 14.7844L1225.71 14.7585Z" fill="#4B4B4B"/>
<path d="M1235.41 11.4829C1236.35 9.88644 1237.58 7.83464 1238.13 6.88364L1239.16 5.15459L1244.74 14.7644C1247.82 20.089 1250.31 24.4723 1250.26 24.5876C1250.22 24.7029 1247.83 24.8142 1244.95 24.7977L1239.68 24.8521L1237.19 20.3708C1235.83 17.8473 1234.56 15.6643 1234.4 15.4967C1233.68 14.7051 1233.8 14.2207 1235.41 11.4829ZM1245.99 4.38743C1248.79 4.34029 1251.21 4.40789 1251.36 4.43701C1251.54 4.50654 1252.95 6.81671 1254.54 9.53104L1257.43 14.5092L1254.76 19.2297C1253.28 21.8177 1252.04 23.8291 1251.97 23.6674C1251.85 23.4826 1249.6 19.6651 1246.96 15.1547C1244.27 10.6616 1241.84 6.39959 1241.49 5.68936L1240.89 4.41331L1245.99 4.38743Z" fill="#929292"/>
<path d="M1235.41 11.4829C1236.35 9.88644 1237.58 7.83464 1238.13 6.88364L1239.16 5.15459L1244.74 14.7644C1247.82 20.089 1250.31 24.4723 1250.26 24.5876C1250.22 24.7029 1247.83 24.8142 1244.95 24.7977L1239.68 24.8521L1237.19 20.3708C1235.83 17.8473 1234.56 15.6643 1234.4 15.4967C1233.68 14.7051 1233.8 14.2207 1235.41 11.4829ZM1245.99 4.38743C1248.79 4.34029 1251.21 4.40789 1251.36 4.43701C1251.54 4.50654 1252.95 6.81671 1254.54 9.53104L1257.43 14.5092L1254.76 19.2297C1253.28 21.8177 1252.04 23.8291 1251.97 23.6674C1251.85 23.4826 1249.6 19.6651 1246.96 15.1547C1244.27 10.6616 1241.84 6.39959 1241.49 5.68936L1240.89 4.41331L1245.99 4.38743Z" fill="#929292"/>
<path d="M1235.41 11.4829C1236.35 9.88644 1237.58 7.83464 1238.13 6.88364L1239.16 5.15459L1244.74 14.7644C1247.82 20.089 1250.31 24.4723 1250.26 24.5876C1250.22 24.7029 1247.83 24.8142 1244.95 24.7977L1239.68 24.8521L1237.19 20.3708C1235.83 17.8473 1234.56 15.6643 1234.4 15.4967C1233.68 14.7051 1233.8 14.2207 1235.41 11.4829ZM1245.99 4.38743C1248.79 4.34029 1251.21 4.40789 1251.36 4.43701C1251.54 4.50654 1252.95 6.81671 1254.54 9.53104L1257.43 14.5092L1254.76 19.2297C1253.28 21.8177 1252.04 23.8291 1251.97 23.6674C1251.85 23.4826 1249.6 19.6651 1246.96 15.1547C1244.27 10.6616 1241.84 6.39959 1241.49 5.68936L1240.89 4.41331L1245.99 4.38743Z" fill="#929292"/>
<path d="M1235.41 11.4829C1236.35 9.88644 1237.58 7.83464 1238.13 6.88364L1239.16 5.15459L1244.74 14.7644C1247.82 20.089 1250.31 24.4723 1250.26 24.5876C1250.22 24.7029 1247.83 24.8142 1244.95 24.7977L1239.68 24.8521L1237.19 20.3708C1235.83 17.8473 1234.56 15.6643 1234.4 15.4967C1233.68 14.7051 1233.8 14.2207 1235.41 11.4829ZM1245.99 4.38743C1248.79 4.34029 1251.21 4.40789 1251.36 4.43701C1251.54 4.50654 1252.95 6.81671 1254.54 9.53104L1257.43 14.5092L1254.76 19.2297C1253.28 21.8177 1252.04 23.8291 1251.97 23.6674C1251.85 23.4826 1249.6 19.6651 1246.96 15.1547C1244.27 10.6616 1241.84 6.39959 1241.49 5.68936L1240.89 4.41331L1245.99 4.38743Z" fill="#4B4B4B"/>
<path d="M1256.15 20.7427C1257.09 19.1462 1258.32 17.0944 1258.87 16.1434L1259.9 14.4144L1265.48 24.0242C1268.56 29.3488 1271.05 33.732 1271.01 33.8473C1270.96 33.9626 1268.57 34.0739 1265.7 34.0575L1260.42 34.1119L1257.93 29.6306C1256.57 27.1071 1255.31 24.9241 1255.14 24.7565C1254.42 23.9648 1254.55 23.4804 1256.15 20.7427ZM1266.74 13.6472C1269.54 13.6001 1271.95 13.6677 1272.11 13.6968C1272.28 13.7663 1273.7 16.0765 1275.28 18.7908L1278.17 23.769L1275.5 28.4895C1274.03 31.0774 1272.79 33.0888 1272.72 32.9272C1272.59 32.7423 1270.34 28.9249 1267.7 24.4145C1265.02 19.9213 1262.58 15.6594 1262.23 14.9491L1261.64 13.6731L1266.74 13.6472Z" fill="#929292"/>
<path d="M1256.15 20.7427C1257.09 19.1462 1258.32 17.0944 1258.87 16.1434L1259.9 14.4144L1265.48 24.0242C1268.56 29.3488 1271.05 33.732 1271.01 33.8473C1270.96 33.9626 1268.57 34.0739 1265.7 34.0575L1260.42 34.1119L1257.93 29.6306C1256.57 27.1071 1255.31 24.9241 1255.14 24.7565C1254.42 23.9648 1254.55 23.4804 1256.15 20.7427ZM1266.74 13.6472C1269.54 13.6001 1271.95 13.6677 1272.11 13.6968C1272.28 13.7663 1273.7 16.0765 1275.28 18.7908L1278.17 23.769L1275.5 28.4895C1274.03 31.0774 1272.79 33.0888 1272.72 32.9272C1272.59 32.7423 1270.34 28.9249 1267.7 24.4145C1265.02 19.9213 1262.58 15.6594 1262.23 14.9491L1261.64 13.6731L1266.74 13.6472Z" fill="#929292"/>
<path d="M1256.15 20.7427C1257.09 19.1462 1258.32 17.0944 1258.87 16.1434L1259.9 14.4144L1265.48 24.0242C1268.56 29.3488 1271.05 33.732 1271.01 33.8473C1270.96 33.9626 1268.57 34.0739 1265.7 34.0575L1260.42 34.1119L1257.93 29.6306C1256.57 27.1071 1255.31 24.9241 1255.14 24.7565C1254.42 23.9648 1254.55 23.4804 1256.15 20.7427ZM1266.74 13.6472C1269.54 13.6001 1271.95 13.6677 1272.11 13.6968C1272.28 13.7663 1273.7 16.0765 1275.28 18.7908L1278.17 23.769L1275.5 28.4895C1274.03 31.0774 1272.79 33.0888 1272.72 32.9272C1272.59 32.7423 1270.34 28.9249 1267.7 24.4145C1265.02 19.9213 1262.58 15.6594 1262.23 14.9491L1261.64 13.6731L1266.74 13.6472Z" fill="#929292"/>
<path d="M1256.15 20.7427C1257.09 19.1462 1258.32 17.0944 1258.87 16.1434L1259.9 14.4144L1265.48 24.0242C1268.56 29.3488 1271.05 33.732 1271.01 33.8473C1270.96 33.9626 1268.57 34.0739 1265.7 34.0575L1260.42 34.1119L1257.93 29.6306C1256.57 27.1071 1255.31 24.9241 1255.14 24.7565C1254.42 23.9648 1254.55 23.4804 1256.15 20.7427ZM1266.74 13.6472C1269.54 13.6001 1271.95 13.6677 1272.11 13.6968C1272.28 13.7663 1273.7 16.0765 1275.28 18.7908L1278.17 23.769L1275.5 28.4895C1274.03 31.0774 1272.79 33.0888 1272.72 32.9272C1272.59 32.7423 1270.34 28.9249 1267.7 24.4145C1265.02 19.9213 1262.58 15.6594 1262.23 14.9491L1261.64 13.6731L1266.74 13.6472Z" fill="#4B4B4B"/>
<path d="M1277.02 11.4829C1277.96 9.88644 1279.19 7.83464 1279.74 6.88364L1280.77 5.15459L1286.35 14.7644C1289.43 20.089 1291.92 24.4723 1291.88 24.5876C1291.83 24.7029 1289.44 24.8142 1286.57 24.7977L1281.29 24.8521L1278.8 20.3708C1277.44 17.8473 1276.18 15.6643 1276.01 15.4967C1275.29 14.7051 1275.42 14.2207 1277.02 11.4829ZM1287.61 4.38743C1290.4 4.34029 1292.82 4.40789 1292.98 4.43701C1293.15 4.50654 1294.57 6.81671 1296.15 9.53104L1299.04 14.5092L1296.37 19.2297C1294.9 21.8177 1293.65 23.8291 1293.59 23.6674C1293.46 23.4826 1291.21 19.6651 1288.57 15.1547C1285.89 10.6616 1283.45 6.39959 1283.1 5.68936L1282.51 4.41331L1287.61 4.38743Z" fill="#929292"/>
<path d="M1277.02 11.4829C1277.96 9.88644 1279.19 7.83464 1279.74 6.88364L1280.77 5.15459L1286.35 14.7644C1289.43 20.089 1291.92 24.4723 1291.88 24.5876C1291.83 24.7029 1289.44 24.8142 1286.57 24.7977L1281.29 24.8521L1278.8 20.3708C1277.44 17.8473 1276.18 15.6643 1276.01 15.4967C1275.29 14.7051 1275.42 14.2207 1277.02 11.4829ZM1287.61 4.38743C1290.4 4.34029 1292.82 4.40789 1292.98 4.43701C1293.15 4.50654 1294.57 6.81671 1296.15 9.53104L1299.04 14.5092L1296.37 19.2297C1294.9 21.8177 1293.65 23.8291 1293.59 23.6674C1293.46 23.4826 1291.21 19.6651 1288.57 15.1547C1285.89 10.6616 1283.45 6.39959 1283.1 5.68936L1282.51 4.41331L1287.61 4.38743Z" fill="#929292"/>
<path d="M1277.02 11.4829C1277.96 9.88644 1279.19 7.83464 1279.74 6.88364L1280.77 5.15459L1286.35 14.7644C1289.43 20.089 1291.92 24.4723 1291.88 24.5876C1291.83 24.7029 1289.44 24.8142 1286.57 24.7977L1281.29 24.8521L1278.8 20.3708C1277.44 17.8473 1276.18 15.6643 1276.01 15.4967C1275.29 14.7051 1275.42 14.2207 1277.02 11.4829ZM1287.61 4.38743C1290.4 4.34029 1292.82 4.40789 1292.98 4.43701C1293.15 4.50654 1294.57 6.81671 1296.15 9.53104L1299.04 14.5092L1296.37 19.2297C1294.9 21.8177 1293.65 23.8291 1293.59 23.6674C1293.46 23.4826 1291.21 19.6651 1288.57 15.1547C1285.89 10.6616 1283.45 6.39959 1283.1 5.68936L1282.51 4.41331L1287.61 4.38743Z" fill="#929292"/>
<path d="M1277.02 11.4829C1277.96 9.88644 1279.19 7.83464 1279.74 6.88364L1280.77 5.15459L1286.35 14.7644C1289.43 20.089 1291.92 24.4723 1291.88 24.5876C1291.83 24.7029 1289.44 24.8142 1286.57 24.7977L1281.29 24.8521L1278.8 20.3708C1277.44 17.8473 1276.18 15.6643 1276.01 15.4967C1275.29 14.7051 1275.42 14.2207 1277.02 11.4829ZM1287.61 4.38743C1290.4 4.34029 1292.82 4.40789 1292.98 4.43701C1293.15 4.50654 1294.57 6.81671 1296.15 9.53104L1299.04 14.5092L1296.37 19.2297C1294.9 21.8177 1293.65 23.8291 1293.59 23.6674C1293.46 23.4826 1291.21 19.6651 1288.57 15.1547C1285.89 10.6616 1283.45 6.39959 1283.1 5.68936L1282.51 4.41331L1287.61 4.38743Z" fill="#4B4B4B"/>
<path d="M1256.15 20.7427C1257.09 19.1462 1258.32 17.0944 1258.87 16.1434L1259.9 14.4144L1265.48 24.0242C1268.56 29.3488 1271.05 33.732 1271.01 33.8473C1270.96 33.9626 1268.57 34.0739 1265.7 34.0575L1260.42 34.1119L1257.93 29.6306C1256.57 27.1071 1255.31 24.9241 1255.14 24.7565C1254.42 23.9648 1254.55 23.4804 1256.15 20.7427ZM1266.74 13.6472C1269.54 13.6001 1271.95 13.6677 1272.11 13.6968C1272.28 13.7663 1273.7 16.0765 1275.28 18.7908L1278.17 23.769L1275.5 28.4895C1274.03 31.0774 1272.79 33.0888 1272.72 32.9272C1272.59 32.7423 1270.34 28.9249 1267.7 24.4145C1265.02 19.9213 1262.58 15.6594 1262.23 14.9491L1261.64 13.6731L1266.74 13.6472Z" fill="#929292"/>
<path d="M1256.15 20.7427C1257.09 19.1462 1258.32 17.0944 1258.87 16.1434L1259.9 14.4144L1265.48 24.0242C1268.56 29.3488 1271.05 33.732 1271.01 33.8473C1270.96 33.9626 1268.57 34.0739 1265.7 34.0575L1260.42 34.1119L1257.93 29.6306C1256.57 27.1071 1255.31 24.9241 1255.14 24.7565C1254.42 23.9648 1254.55 23.4804 1256.15 20.7427ZM1266.74 13.6472C1269.54 13.6001 1271.95 13.6677 1272.11 13.6968C1272.28 13.7663 1273.7 16.0765 1275.28 18.7908L1278.17 23.769L1275.5 28.4895C1274.03 31.0774 1272.79 33.0888 1272.72 32.9272C1272.59 32.7423 1270.34 28.9249 1267.7 24.4145C1265.02 19.9213 1262.58 15.6594 1262.23 14.9491L1261.64 13.6731L1266.74 13.6472Z" fill="#929292"/>
<path d="M1256.15 20.7427C1257.09 19.1462 1258.32 17.0944 1258.87 16.1434L1259.9 14.4144L1265.48 24.0242C1268.56 29.3488 1271.05 33.732 1271.01 33.8473C1270.96 33.9626 1268.57 34.0739 1265.7 34.0575L1260.42 34.1119L1257.93 29.6306C1256.57 27.1071 1255.31 24.9241 1255.14 24.7565C1254.42 23.9648 1254.55 23.4804 1256.15 20.7427ZM1266.74 13.6472C1269.54 13.6001 1271.95 13.6677 1272.11 13.6968C1272.28 13.7663 1273.7 16.0765 1275.28 18.7908L1278.17 23.769L1275.5 28.4895C1274.03 31.0774 1272.79 33.0888 1272.72 32.9272C1272.59 32.7423 1270.34 28.9249 1267.7 24.4145C1265.02 19.9213 1262.58 15.6594 1262.23 14.9491L1261.64 13.6731L1266.74 13.6472Z" fill="#929292"/>
<path d="M1256.15 20.7427C1257.09 19.1462 1258.32 17.0944 1258.87 16.1434L1259.9 14.4144L1265.48 24.0242C1268.56 29.3488 1271.05 33.732 1271.01 33.8473C1270.96 33.9626 1268.57 34.0739 1265.7 34.0575L1260.42 34.1119L1257.93 29.6306C1256.57 27.1071 1255.31 24.9241 1255.14 24.7565C1254.42 23.9648 1254.55 23.4804 1256.15 20.7427ZM1266.74 13.6472C1269.54 13.6001 1271.95 13.6677 1272.11 13.6968C1272.28 13.7663 1273.7 16.0765 1275.28 18.7908L1278.17 23.769L1275.5 28.4895C1274.03 31.0774 1272.79 33.0888 1272.72 32.9272C1272.59 32.7423 1270.34 28.9249 1267.7 24.4145C1265.02 19.9213 1262.58 15.6594 1262.23 14.9491L1261.64 13.6731L1266.74 13.6472Z" fill="#4B4B4B"/>
<path d="M1277.02 11.4829C1277.96 9.88644 1279.19 7.83464 1279.74 6.88364L1280.77 5.15459L1286.35 14.7644C1289.43 20.089 1291.92 24.4723 1291.88 24.5876C1291.83 24.7029 1289.44 24.8142 1286.57 24.7977L1281.29 24.8521L1278.8 20.3708C1277.44 17.8473 1276.18 15.6643 1276.01 15.4967C1275.29 14.7051 1275.42 14.2207 1277.02 11.4829ZM1287.61 4.38743C1290.4 4.34029 1292.82 4.40789 1292.98 4.43701C1293.15 4.50654 1294.57 6.81671 1296.15 9.53104L1299.04 14.5092L1296.37 19.2297C1294.9 21.8177 1293.65 23.8291 1293.59 23.6674C1293.46 23.4826 1291.21 19.6651 1288.57 15.1547C1285.89 10.6616 1283.45 6.39959 1283.1 5.68936L1282.51 4.41331L1287.61 4.38743Z" fill="#929292"/>
<path d="M1277.02 11.4829C1277.96 9.88644 1279.19 7.83464 1279.74 6.88364L1280.77 5.15459L1286.35 14.7644C1289.43 20.089 1291.92 24.4723 1291.88 24.5876C1291.83 24.7029 1289.44 24.8142 1286.57 24.7977L1281.29 24.8521L1278.8 20.3708C1277.44 17.8473 1276.18 15.6643 1276.01 15.4967C1275.29 14.7051 1275.42 14.2207 1277.02 11.4829ZM1287.61 4.38743C1290.4 4.34029 1292.82 4.40789 1292.98 4.43701C1293.15 4.50654 1294.57 6.81671 1296.15 9.53104L1299.04 14.5092L1296.37 19.2297C1294.9 21.8177 1293.65 23.8291 1293.59 23.6674C1293.46 23.4826 1291.21 19.6651 1288.57 15.1547C1285.89 10.6616 1283.45 6.39959 1283.1 5.68936L1282.51 4.41331L1287.61 4.38743Z" fill="#929292"/>
<path d="M1277.02 11.4829C1277.96 9.88644 1279.19 7.83464 1279.74 6.88364L1280.77 5.15459L1286.35 14.7644C1289.43 20.089 1291.92 24.4723 1291.88 24.5876C1291.83 24.7029 1289.44 24.8142 1286.57 24.7977L1281.29 24.8521L1278.8 20.3708C1277.44 17.8473 1276.18 15.6643 1276.01 15.4967C1275.29 14.7051 1275.42 14.2207 1277.02 11.4829ZM1287.61 4.38743C1290.4 4.34029 1292.82 4.40789 1292.98 4.43701C1293.15 4.50654 1294.57 6.81671 1296.15 9.53104L1299.04 14.5092L1296.37 19.2297C1294.9 21.8177 1293.65 23.8291 1293.59 23.6674C1293.46 23.4826 1291.21 19.6651 1288.57 15.1547C1285.89 10.6616 1283.45 6.39959 1283.1 5.68936L1282.51 4.41331L1287.61 4.38743Z" fill="#929292"/>
<path d="M1277.02 11.4829C1277.96 9.88644 1279.19 7.83464 1279.74 6.88364L1280.77 5.15459L1286.35 14.7644C1289.43 20.089 1291.92 24.4723 1291.88 24.5876C1291.83 24.7029 1289.44 24.8142 1286.57 24.7977L1281.29 24.8521L1278.8 20.3708C1277.44 17.8473 1276.18 15.6643 1276.01 15.4967C1275.29 14.7051 1275.42 14.2207 1277.02 11.4829ZM1287.61 4.38743C1290.4 4.34029 1292.82 4.40789 1292.98 4.43701C1293.15 4.50654 1294.57 6.81671 1296.15 9.53104L1299.04 14.5092L1296.37 19.2297C1294.9 21.8177 1293.65 23.8291 1293.59 23.6674C1293.46 23.4826 1291.21 19.6651 1288.57 15.1547C1285.89 10.6616 1283.45 6.39959 1283.1 5.68936L1282.51 4.41331L1287.61 4.38743Z" fill="#4B4B4B"/>
<path d="M1298.12 20.7427C1299.06 19.1462 1300.29 17.0944 1300.84 16.1434L1301.87 14.4144L1307.45 24.0242C1310.53 29.3488 1313.02 33.732 1312.98 33.8473C1312.93 33.9626 1310.54 34.0739 1307.67 34.0575L1302.39 34.1119L1299.91 29.6306C1298.54 27.1071 1297.28 24.9241 1297.11 24.7565C1296.39 23.9648 1296.52 23.4804 1298.12 20.7427ZM1308.71 13.6472C1311.51 13.6001 1313.92 13.6677 1314.08 13.6968C1314.25 13.7663 1315.67 16.0765 1317.26 18.7908L1320.14 23.769L1317.48 28.4895C1316 31.0774 1314.76 33.0888 1314.69 32.9272C1314.56 32.7423 1312.31 28.9249 1309.67 24.4145C1306.99 19.9213 1304.55 15.6594 1304.2 14.9491L1303.61 13.6731L1308.71 13.6472Z" fill="#929292"/>
<path d="M1298.12 20.7427C1299.06 19.1462 1300.29 17.0944 1300.84 16.1434L1301.87 14.4144L1307.45 24.0242C1310.53 29.3488 1313.02 33.732 1312.98 33.8473C1312.93 33.9626 1310.54 34.0739 1307.67 34.0575L1302.39 34.1119L1299.91 29.6306C1298.54 27.1071 1297.28 24.9241 1297.11 24.7565C1296.39 23.9648 1296.52 23.4804 1298.12 20.7427ZM1308.71 13.6472C1311.51 13.6001 1313.92 13.6677 1314.08 13.6968C1314.25 13.7663 1315.67 16.0765 1317.26 18.7908L1320.14 23.769L1317.48 28.4895C1316 31.0774 1314.76 33.0888 1314.69 32.9272C1314.56 32.7423 1312.31 28.9249 1309.67 24.4145C1306.99 19.9213 1304.55 15.6594 1304.2 14.9491L1303.61 13.6731L1308.71 13.6472Z" fill="#929292"/>
<path d="M1298.12 20.7427C1299.06 19.1462 1300.29 17.0944 1300.84 16.1434L1301.87 14.4144L1307.45 24.0242C1310.53 29.3488 1313.02 33.732 1312.98 33.8473C1312.93 33.9626 1310.54 34.0739 1307.67 34.0575L1302.39 34.1119L1299.91 29.6306C1298.54 27.1071 1297.28 24.9241 1297.11 24.7565C1296.39 23.9648 1296.52 23.4804 1298.12 20.7427ZM1308.71 13.6472C1311.51 13.6001 1313.92 13.6677 1314.08 13.6968C1314.25 13.7663 1315.67 16.0765 1317.26 18.7908L1320.14 23.769L1317.48 28.4895C1316 31.0774 1314.76 33.0888 1314.69 32.9272C1314.56 32.7423 1312.31 28.9249 1309.67 24.4145C1306.99 19.9213 1304.55 15.6594 1304.2 14.9491L1303.61 13.6731L1308.71 13.6472Z" fill="#929292"/>
<path d="M1298.12 20.7427C1299.06 19.1462 1300.29 17.0944 1300.84 16.1434L1301.87 14.4144L1307.45 24.0242C1310.53 29.3488 1313.02 33.732 1312.98 33.8473C1312.93 33.9626 1310.54 34.0739 1307.67 34.0575L1302.39 34.1119L1299.91 29.6306C1298.54 27.1071 1297.28 24.9241 1297.11 24.7565C1296.39 23.9648 1296.52 23.4804 1298.12 20.7427ZM1308.71 13.6472C1311.51 13.6001 1313.92 13.6677 1314.08 13.6968C1314.25 13.7663 1315.67 16.0765 1317.26 18.7908L1320.14 23.769L1317.48 28.4895C1316 31.0774 1314.76 33.0888 1314.69 32.9272C1314.56 32.7423 1312.31 28.9249 1309.67 24.4145C1306.99 19.9213 1304.55 15.6594 1304.2 14.9491L1303.61 13.6731L1308.71 13.6472Z" fill="#262626"/>
<path d="M1318.99 11.4829C1319.93 9.88644 1321.16 7.83464 1321.71 6.88364L1322.74 5.15459L1328.32 14.7644C1331.4 20.089 1333.89 24.4723 1333.85 24.5876C1333.8 24.7029 1331.41 24.8142 1328.54 24.7977L1323.26 24.8521L1320.77 20.3708C1319.41 17.8473 1318.15 15.6643 1317.98 15.4967C1317.26 14.7051 1317.39 14.2207 1318.99 11.4829ZM1329.58 4.38743C1332.38 4.34029 1334.79 4.40789 1334.95 4.43701C1335.12 4.50654 1336.54 6.81671 1338.12 9.53104L1341.01 14.5092L1338.34 19.2297C1336.87 21.8177 1335.63 23.8291 1335.56 23.6674C1335.43 23.4826 1333.18 19.6651 1330.54 15.1547C1327.86 10.6616 1325.42 6.39959 1325.07 5.68936L1324.48 4.41331L1329.58 4.38743Z" fill="#929292"/>
<path d="M1318.99 11.4829C1319.93 9.88644 1321.16 7.83464 1321.71 6.88364L1322.74 5.15459L1328.32 14.7644C1331.4 20.089 1333.89 24.4723 1333.85 24.5876C1333.8 24.7029 1331.41 24.8142 1328.54 24.7977L1323.26 24.8521L1320.77 20.3708C1319.41 17.8473 1318.15 15.6643 1317.98 15.4967C1317.26 14.7051 1317.39 14.2207 1318.99 11.4829ZM1329.58 4.38743C1332.38 4.34029 1334.79 4.40789 1334.95 4.43701C1335.12 4.50654 1336.54 6.81671 1338.12 9.53104L1341.01 14.5092L1338.34 19.2297C1336.87 21.8177 1335.63 23.8291 1335.56 23.6674C1335.43 23.4826 1333.18 19.6651 1330.54 15.1547C1327.86 10.6616 1325.42 6.39959 1325.07 5.68936L1324.48 4.41331L1329.58 4.38743Z" fill="#929292"/>
<path d="M1318.99 11.4829C1319.93 9.88644 1321.16 7.83464 1321.71 6.88364L1322.74 5.15459L1328.32 14.7644C1331.4 20.089 1333.89 24.4723 1333.85 24.5876C1333.8 24.7029 1331.41 24.8142 1328.54 24.7977L1323.26 24.8521L1320.77 20.3708C1319.41 17.8473 1318.15 15.6643 1317.98 15.4967C1317.26 14.7051 1317.39 14.2207 1318.99 11.4829ZM1329.58 4.38743C1332.38 4.34029 1334.79 4.40789 1334.95 4.43701C1335.12 4.50654 1336.54 6.81671 1338.12 9.53104L1341.01 14.5092L1338.34 19.2297C1336.87 21.8177 1335.63 23.8291 1335.56 23.6674C1335.43 23.4826 1333.18 19.6651 1330.54 15.1547C1327.86 10.6616 1325.42 6.39959 1325.07 5.68936L1324.48 4.41331L1329.58 4.38743Z" fill="#929292"/>
<path d="M1318.99 11.4829C1319.93 9.88644 1321.16 7.83464 1321.71 6.88364L1322.74 5.15459L1328.32 14.7644C1331.4 20.089 1333.89 24.4723 1333.85 24.5876C1333.8 24.7029 1331.41 24.8142 1328.54 24.7977L1323.26 24.8521L1320.77 20.3708C1319.41 17.8473 1318.15 15.6643 1317.98 15.4967C1317.26 14.7051 1317.39 14.2207 1318.99 11.4829ZM1329.58 4.38743C1332.38 4.34029 1334.79 4.40789 1334.95 4.43701C1335.12 4.50654 1336.54 6.81671 1338.12 9.53104L1341.01 14.5092L1338.34 19.2297C1336.87 21.8177 1335.63 23.8291 1335.56 23.6674C1335.43 23.4826 1333.18 19.6651 1330.54 15.1547C1327.86 10.6616 1325.42 6.39959 1325.07 5.68936L1324.48 4.41331L1329.58 4.38743Z" fill="#262626"/>
</svg>
