<svg width="1440" height="334" viewBox="0 0 1440 334" fill="none" xmlns="http://www.w3.org/2000/svg">
<path d="M369.819 223.806L388.5 186.654L388.5 261.167L369.819 223.806Z" fill="#121315" stroke="black"/>
<path d="M343.631 57.4781L388.5 57.4781L388.5 147.216L368.903 108.021L343.631 57.4781Z" fill="#121315" stroke="black"/>
<path d="M388.5 33.2666L372.136 0.539123L388.5 0.539124L388.5 33.2666Z" fill="#121315" stroke="black"/>
<path d="M367.668 333.468L343.631 285.386L388.5 285.386L388.5 333.468L367.668 333.468Z" fill="#121315" stroke="black"/>
<path d="M357.738 333.468L331.802 333.468L229.683 333.468L253.727 285.386L333.694 285.386L357.738 333.468Z" fill="#121315" stroke="black"/>
<path d="M-0.500973 300.708L15.8785 333.467L-0.500974 333.467L-0.500973 300.708Z" fill="#121315" stroke="black"/>
<path d="M-0.499547 261.272L-0.499544 186.759L18.181 224.128L-0.499547 261.272Z" fill="#121315" stroke="black"/>
<path d="M44.3682 162.538L-0.500752 162.538L-0.500748 72.8079L19.0966 111.995L19.0966 111.995L44.3682 162.538Z" fill="#121315" stroke="black"/>
<path d="M26.8456 0.815249L72.8364 0.543896L47.5869 51.0507L47.5869 51.0507L23.0714 100.074L-0.499827 52.9314L-0.499826 35.4714L-0.499825 0.815257L16.6808 0.815258L26.8426 0.815267L26.8456 0.815249Z" fill="#121315" stroke="black"/>
<path d="M215.421 0.539123L194.009 43.1213L172.718 0.539122L215.421 0.539123Z" fill="#121315" stroke="black"/>
<path d="M82.7984 0.499995L162.761 0.499999L186.809 48.5892L137.022 48.5892L58.7538 48.5892L82.7984 0.499995Z" fill="#121315" stroke="black"/>
<path d="M168.249 333.468L144.212 285.386L191.252 285.386L215.297 333.468L168.249 333.468Z" fill="#121315" stroke="black"/>
<path d="M158.32 333.468L158.032 333.468L30.2642 333.468L54.3088 285.386L134.275 285.386L158.32 333.468Z" fill="#121315" stroke="black"/>
<path d="M246.997 278.951L246.997 278.951L222.49 327.974L198.97 280.942L225.237 228.722L272.251 228.452L246.997 278.951Z" fill="#121315" stroke="black"/>
<path d="M23.0715 327.974L-0.440501 280.942L25.8184 228.722L72.8326 228.452L47.5869 278.951L47.5869 278.951L23.0715 327.974Z" fill="#121315" stroke="black"/>
<path d="M186.81 276.496L137.022 276.496L58.7538 276.496L82.7984 228.407L108.541 228.407L162.765 228.407L186.81 276.496Z" fill="#121315" stroke="black"/>
<path d="M193.989 176.903L217.597 224.127L194.008 271.021L170.4 223.805L193.989 176.903Z" fill="#121315" stroke="black"/>
<path d="M129.828 171.429L105.783 219.518L80.0487 219.518L25.8168 219.518L1.77222 171.429L51.5593 171.429L129.828 171.429Z" fill="#121315" stroke="black"/>
<path d="M201.191 171.429L250.978 171.429L329.246 171.429L305.202 219.518L279.467 219.518L225.235 219.518L201.191 171.429Z" fill="#121315" stroke="black"/>
<path d="M340.413 168.975L364.929 119.952L388.441 166.984L362.182 219.204L315.168 219.474L340.413 168.975L340.413 168.975Z" fill="#121315" stroke="black"/>
<path d="M141.004 168.975L141.004 168.975L165.512 119.952L189.031 166.984L162.765 219.204L115.751 219.474L141.004 168.975Z" fill="#121315" stroke="black"/>
<path d="M54.3088 162.539L30.2643 114.457L158.32 114.457L134.275 162.539L54.3088 162.539Z" fill="#121315" stroke="black"/>
<path d="M169.494 108.021L169.356 107.745L169.348 107.745L144.215 57.4781L191.255 57.4781L218.517 111.995L218.517 111.995L243.789 162.538L196.749 162.538L169.494 108.021Z" fill="#121315" stroke="black"/>
<path d="M229.683 114.457L357.738 114.457L333.694 162.539L253.727 162.539L229.683 114.457Z" fill="#121315" stroke="black"/>
<path d="M158.32 105.567L30.2641 105.567L54.3088 57.4781L134.275 57.4781L158.32 105.567Z" fill="#121315" stroke="black"/>
<path d="M253.727 57.4781L333.694 57.4781L357.738 105.567L229.683 105.567L253.727 57.4781Z" fill="#121315" stroke="black"/>
<path d="M272.251 0.54392L246.997 51.0507L246.997 51.0507L222.49 100.074L198.97 53.0422L225.237 0.821333L272.251 0.54392Z" fill="#121315" stroke="black"/>
<path d="M386.226 48.5892L336.439 48.5892L258.17 48.5892L282.215 0.499995L362.181 0.499999L386.226 48.5892Z" fill="#121315" stroke="black"/>
<path d="M258.17 276.496L282.215 228.407L307.949 228.407L362.181 228.407L386.226 276.496L336.439 276.496L258.17 276.496Z" fill="#121315" stroke="black"/>
<path d="M369.819 223.806L388.5 186.654L388.5 261.167L369.819 223.806Z" fill="#121315" stroke="black"/>
<path d="M343.631 57.4781L388.5 57.4781L388.5 147.216L368.903 108.021L343.631 57.4781Z" fill="#121315" stroke="black"/>
<path d="M388.5 33.2666L372.136 0.539123L388.5 0.539124L388.5 33.2666Z" fill="#121315" stroke="black"/>
<path d="M367.668 333.468L343.631 285.386L388.5 285.386L388.5 333.468L367.668 333.468Z" fill="#121315" stroke="black"/>
<path d="M357.738 333.468L331.802 333.468L229.683 333.468L253.727 285.386L333.694 285.386L357.738 333.468Z" fill="#121315" stroke="black"/>
<path d="M-0.500973 300.708L15.8785 333.467L-0.500974 333.467L-0.500973 300.708Z" fill="#121315" stroke="black"/>
<path d="M-0.499547 261.272L-0.499544 186.759L18.181 224.128L-0.499547 261.272Z" fill="#121315" stroke="black"/>
<path d="M44.3682 162.538L-0.500752 162.538L-0.500748 72.8079L19.0966 111.995L19.0966 111.995L44.3682 162.538Z" fill="#121315" stroke="black"/>
<path d="M26.8456 0.815249L72.8364 0.543896L47.5869 51.0507L47.5869 51.0507L23.0714 100.074L-0.499827 52.9314L-0.499826 35.4714L-0.499825 0.815257L16.6808 0.815258L26.8426 0.815267L26.8456 0.815249Z" fill="#121315" stroke="black"/>
<path d="M215.421 0.539123L194.009 43.1213L172.718 0.539122L215.421 0.539123Z" fill="#121315" stroke="black"/>
<path d="M82.7984 0.499995L162.761 0.499999L186.809 48.5892L137.022 48.5892L58.7538 48.5892L82.7984 0.499995Z" fill="#121315" stroke="black"/>
<path d="M168.249 333.468L144.212 285.386L191.252 285.386L215.297 333.468L168.249 333.468Z" fill="#121315" stroke="black"/>
<path d="M158.32 333.468L158.032 333.468L30.2642 333.468L54.3088 285.386L134.275 285.386L158.32 333.468Z" fill="#121315" stroke="black"/>
<path d="M246.997 278.951L246.997 278.951L222.49 327.974L198.97 280.942L225.237 228.722L272.251 228.452L246.997 278.951Z" fill="#121315" stroke="black"/>
<path d="M23.0715 327.974L-0.440501 280.942L25.8184 228.722L72.8326 228.452L47.5869 278.951L47.5869 278.951L23.0715 327.974Z" fill="#121315" stroke="black"/>
<path d="M186.81 276.496L137.022 276.496L58.7538 276.496L82.7984 228.407L108.541 228.407L162.765 228.407L186.81 276.496Z" fill="#121315" stroke="black"/>
<path d="M193.989 176.903L217.597 224.127L194.008 271.021L170.4 223.805L193.989 176.903Z" fill="#121315" stroke="black"/>
<path d="M129.828 171.429L105.783 219.518L80.0487 219.518L25.8168 219.518L1.77222 171.429L51.5593 171.429L129.828 171.429Z" fill="#121315" stroke="black"/>
<path d="M201.191 171.429L250.978 171.429L329.246 171.429L305.202 219.518L279.467 219.518L225.235 219.518L201.191 171.429Z" fill="#121315" stroke="black"/>
<path d="M340.413 168.975L364.929 119.952L388.441 166.984L362.182 219.204L315.168 219.474L340.413 168.975L340.413 168.975Z" fill="#121315" stroke="black"/>
<path d="M141.004 168.975L141.004 168.975L165.512 119.952L189.031 166.984L162.765 219.204L115.751 219.474L141.004 168.975Z" fill="#121315" stroke="black"/>
<path d="M54.3088 162.539L30.2643 114.457L158.32 114.457L134.275 162.539L54.3088 162.539Z" fill="#121315" stroke="black"/>
<path d="M169.494 108.021L169.356 107.745L169.348 107.745L144.215 57.4781L191.255 57.4781L218.517 111.995L218.517 111.995L243.789 162.538L196.749 162.538L169.494 108.021Z" fill="#121315" stroke="black"/>
<path d="M229.683 114.457L357.738 114.457L333.694 162.539L253.727 162.539L229.683 114.457Z" fill="#121315" stroke="black"/>
<path d="M158.32 105.567L30.2641 105.567L54.3088 57.4781L134.275 57.4781L158.32 105.567Z" fill="#121315" stroke="black"/>
<path d="M253.727 57.4781L333.694 57.4781L357.738 105.567L229.683 105.567L253.727 57.4781Z" fill="#121315" stroke="black"/>
<path d="M272.251 0.54392L246.997 51.0507L246.997 51.0507L222.49 100.074L198.97 53.0422L225.237 0.821333L272.251 0.54392Z" fill="#121315" stroke="black"/>
<path d="M386.226 48.5892L336.439 48.5892L258.17 48.5892L282.215 0.499995L362.181 0.499999L386.226 48.5892Z" fill="#121315" stroke="black"/>
<path d="M258.17 276.496L282.215 228.407L307.949 228.407L362.181 228.407L386.226 276.496L336.439 276.496L258.17 276.496Z" fill="#121315" stroke="black"/>
<path d="M766.819 223.806L785.5 186.654L785.5 261.167L766.819 223.806Z" fill="#121315" stroke="black"/>
<path d="M740.631 57.4781L785.5 57.4781L785.5 147.216L765.903 108.021L740.631 57.4781Z" fill="#121315" stroke="black"/>
<path d="M785.5 33.2666L769.136 0.539123L785.5 0.539124L785.5 33.2666Z" fill="#121315" stroke="black"/>
<path d="M764.668 333.468L740.631 285.386L785.5 285.386L785.5 333.468L764.668 333.468Z" fill="#121315" stroke="black"/>
<path d="M754.738 333.468L728.802 333.468L626.683 333.468L650.727 285.386L730.694 285.386L754.738 333.468Z" fill="#121315" stroke="black"/>
<path d="M396.499 300.708L412.879 333.467L396.499 333.467L396.499 300.708Z" fill="#121315" stroke="black"/>
<path d="M396.5 261.272L396.5 186.759L415.181 224.128L396.5 261.272Z" fill="#121315" stroke="black"/>
<path d="M441.368 162.538L396.499 162.538L396.499 72.8079L416.097 111.995L416.097 111.995L441.368 162.538Z" fill="#121315" stroke="black"/>
<path d="M423.846 0.815249L469.836 0.543896L444.587 51.0507L444.587 51.0507L420.071 100.074L396.5 52.9314L396.5 35.4714L396.5 0.815257L413.681 0.815258L423.843 0.815267L423.846 0.815249Z" fill="#121315" stroke="black"/>
<path d="M612.421 0.539123L591.009 43.1213L569.718 0.539122L612.421 0.539123Z" fill="#121315" stroke="black"/>
<path d="M479.798 0.499995L559.761 0.499999L583.81 48.5892L534.022 48.5892L455.754 48.5892L479.798 0.499995Z" fill="#121315" stroke="black"/>
<path d="M565.249 333.468L541.212 285.386L588.252 285.386L612.297 333.468L565.249 333.468Z" fill="#121315" stroke="black"/>
<path d="M555.32 333.468L555.032 333.468L427.264 333.468L451.309 285.386L531.275 285.386L555.32 333.468Z" fill="#121315" stroke="black"/>
<path d="M643.997 278.951L643.997 278.951L619.49 327.974L595.97 280.942L622.237 228.722L669.251 228.452L643.997 278.951Z" fill="#121315" stroke="black"/>
<path d="M420.071 327.974L396.56 280.942L422.818 228.722L469.833 228.452L444.587 278.951L444.587 278.951L420.071 327.974Z" fill="#121315" stroke="black"/>
<path d="M583.81 276.496L534.022 276.496L455.754 276.496L479.798 228.407L505.541 228.407L559.765 228.407L583.81 276.496Z" fill="#121315" stroke="black"/>
<path d="M590.989 176.903L614.597 224.127L591.008 271.021L567.4 223.805L590.989 176.903Z" fill="#121315" stroke="black"/>
<path d="M526.828 171.429L502.783 219.518L477.049 219.518L422.817 219.518L398.772 171.429L448.559 171.429L526.828 171.429Z" fill="#121315" stroke="black"/>
<path d="M598.191 171.429L647.978 171.429L726.246 171.429L702.202 219.518L676.467 219.518L622.235 219.518L598.191 171.429Z" fill="#121315" stroke="black"/>
<path d="M737.413 168.975L761.929 119.952L785.441 166.984L759.182 219.204L712.168 219.474L737.413 168.975L737.413 168.975Z" fill="#121315" stroke="black"/>
<path d="M538.004 168.975L538.004 168.975L562.512 119.952L586.031 166.984L559.765 219.204L512.751 219.474L538.004 168.975Z" fill="#121315" stroke="black"/>
<path d="M451.309 162.539L427.264 114.457L555.32 114.457L531.275 162.539L451.309 162.539Z" fill="#121315" stroke="black"/>
<path d="M566.494 108.021L566.356 107.745L566.348 107.745L541.215 57.4781L588.255 57.4781L615.517 111.995L615.517 111.995L640.789 162.538L593.749 162.538L566.494 108.021Z" fill="#121315" stroke="black"/>
<path d="M626.683 114.457L754.738 114.457L730.694 162.539L650.727 162.539L626.683 114.457Z" fill="#121315" stroke="black"/>
<path d="M555.32 105.567L427.264 105.567L451.309 57.4781L531.275 57.4781L555.32 105.567Z" fill="#121315" stroke="black"/>
<path d="M650.727 57.4781L730.694 57.4781L754.738 105.567L626.683 105.567L650.727 57.4781Z" fill="#121315" stroke="black"/>
<path d="M669.251 0.54392L643.997 51.0507L643.997 51.0507L619.49 100.074L595.97 53.0422L622.237 0.821333L669.251 0.54392Z" fill="#121315" stroke="black"/>
<path d="M783.226 48.5892L733.439 48.5892L655.17 48.5892L679.215 0.499995L759.181 0.499999L783.226 48.5892Z" fill="#121315" stroke="black"/>
<path d="M655.17 276.496L679.215 228.407L704.949 228.407L759.181 228.407L783.226 276.496L733.439 276.496L655.17 276.496Z" fill="#121315" stroke="black"/>
<path d="M1163.82 223.806L1182.5 186.654L1182.5 261.167L1163.82 223.806Z" fill="#121315" stroke="black"/>
<path d="M1137.63 57.4781L1182.5 57.4781L1182.5 147.216L1162.9 108.021L1137.63 57.4781Z" fill="#121315" stroke="black"/>
<path d="M1182.5 33.2666L1166.14 0.539123L1182.5 0.539124L1182.5 33.2666Z" fill="#121315" stroke="black"/>
<path d="M1161.67 333.468L1137.63 285.386L1182.5 285.386L1182.5 333.468L1161.67 333.468Z" fill="#121315" stroke="black"/>
<path d="M1151.74 333.468L1125.8 333.468L1023.68 333.468L1047.73 285.386L1127.69 285.386L1151.74 333.468Z" fill="#121315" stroke="black"/>
<path d="M793.499 300.708L809.879 333.467L793.499 333.467L793.499 300.708Z" fill="#121315" stroke="black"/>
<path d="M793.5 261.272L793.5 186.759L812.181 224.128L793.5 261.272Z" fill="#121315" stroke="black"/>
<path d="M838.368 162.538L793.499 162.538L793.499 72.8079L813.097 111.995L813.097 111.995L838.368 162.538Z" fill="#121315" stroke="black"/>
<path d="M820.846 0.815249L866.836 0.543896L841.587 51.0507L841.587 51.0507L817.071 100.074L793.5 52.9314L793.5 35.4714L793.5 0.815257L810.681 0.815258L820.843 0.815267L820.846 0.815249Z" fill="#121315" stroke="black"/>
<path d="M1009.42 0.539123L988.009 43.1213L966.718 0.539122L1009.42 0.539123Z" fill="#121315" stroke="black"/>
<path d="M876.798 0.499995L956.761 0.499999L980.81 48.5892L931.022 48.5892L852.754 48.5892L876.798 0.499995Z" fill="#121315" stroke="black"/>
<path d="M962.249 333.468L938.212 285.386L985.252 285.386L1009.3 333.468L962.249 333.468Z" fill="#121315" stroke="black"/>
<path d="M952.32 333.468L952.032 333.468L824.264 333.468L848.309 285.386L928.275 285.386L952.32 333.468Z" fill="#121315" stroke="black"/>
<path d="M1041 278.951L1041 278.951L1016.49 327.974L992.97 280.942L1019.24 228.722L1066.25 228.452L1041 278.951Z" fill="#121315" stroke="black"/>
<path d="M817.071 327.974L793.56 280.942L819.818 228.722L866.833 228.452L841.587 278.951L841.587 278.951L817.071 327.974Z" fill="#121315" stroke="black"/>
<path d="M980.81 276.496L931.022 276.496L852.754 276.496L876.798 228.407L902.541 228.407L956.765 228.407L980.81 276.496Z" fill="#121315" stroke="black"/>
<path d="M987.989 176.903L1011.6 224.127L988.008 271.021L964.4 223.805L987.989 176.903Z" fill="#121315" stroke="black"/>
<path d="M923.828 171.429L899.783 219.518L874.049 219.518L819.817 219.518L795.772 171.429L845.559 171.429L923.828 171.429Z" fill="#121315" stroke="black"/>
<path d="M995.191 171.429L1044.98 171.429L1123.25 171.429L1099.2 219.518L1073.47 219.518L1019.24 219.518L995.191 171.429Z" fill="#121315" stroke="black"/>
<path d="M1134.41 168.975L1158.93 119.952L1182.44 166.984L1156.18 219.204L1109.17 219.474L1134.41 168.975L1134.41 168.975Z" fill="#121315" stroke="black"/>
<path d="M935.004 168.975L935.004 168.975L959.512 119.952L983.031 166.984L956.765 219.204L909.751 219.474L935.004 168.975Z" fill="#121315" stroke="black"/>
<path d="M848.309 162.539L824.264 114.457L952.32 114.457L928.275 162.539L848.309 162.539Z" fill="#121315" stroke="black"/>
<path d="M963.494 108.021L963.356 107.745L963.348 107.745L938.215 57.4781L985.255 57.4781L1012.52 111.995L1012.52 111.995L1037.79 162.538L990.749 162.538L963.494 108.021Z" fill="#121315" stroke="black"/>
<path d="M1023.68 114.457L1151.74 114.457L1127.69 162.539L1047.73 162.539L1023.68 114.457Z" fill="#121315" stroke="black"/>
<path d="M952.32 105.567L824.264 105.567L848.309 57.4781L928.275 57.4781L952.32 105.567Z" fill="#121315" stroke="black"/>
<path d="M1047.73 57.4781L1127.69 57.4781L1151.74 105.567L1023.68 105.567L1047.73 57.4781Z" fill="#121315" stroke="black"/>
<path d="M1066.25 0.54392L1041 51.0507L1041 51.0507L1016.49 100.074L992.97 53.0422L1019.24 0.821333L1066.25 0.54392Z" fill="#121315" stroke="black"/>
<path d="M1180.23 48.5892L1130.44 48.5892L1052.17 48.5892L1076.21 0.499995L1156.18 0.499999L1180.23 48.5892Z" fill="#121315" stroke="black"/>
<path d="M1052.17 276.496L1076.21 228.407L1101.95 228.407L1156.18 228.407L1180.23 276.496L1130.44 276.496L1052.17 276.496Z" fill="#121315" stroke="black"/>
<path d="M1548.74 333.468L1522.8 333.468L1420.68 333.468L1444.73 285.386L1524.69 285.386L1548.74 333.468Z" fill="#121315" stroke="black"/>
<path d="M1190.5 300.708L1206.88 333.467L1190.5 333.467L1190.5 300.708Z" fill="#121315" stroke="black"/>
<path d="M1190.5 261.272L1190.5 186.759L1209.18 224.128L1190.5 261.272Z" fill="#121315" stroke="black"/>
<path d="M1235.37 162.538L1190.5 162.538L1190.5 72.8079L1210.1 111.995L1210.1 111.995L1235.37 162.538Z" fill="#121315" stroke="black"/>
<path d="M1217.85 0.815249L1263.84 0.543896L1238.59 51.0507L1238.59 51.0507L1214.07 100.074L1190.5 52.9314L1190.5 35.4714L1190.5 0.815257L1207.68 0.815258L1217.84 0.815267L1217.85 0.815249Z" fill="#121315" stroke="black"/>
<path d="M1406.42 0.539123L1385.01 43.1213L1363.72 0.539122L1406.42 0.539123Z" fill="#121315" stroke="black"/>
<path d="M1273.8 0.499995L1353.76 0.499999L1377.81 48.5892L1328.02 48.5892L1249.75 48.5892L1273.8 0.499995Z" fill="#121315" stroke="black"/>
<path d="M1359.25 333.468L1335.21 285.386L1382.25 285.386L1406.3 333.468L1359.25 333.468Z" fill="#121315" stroke="black"/>
<path d="M1349.32 333.468L1349.03 333.468L1221.26 333.468L1245.31 285.386L1325.28 285.386L1349.32 333.468Z" fill="#121315" stroke="black"/>
<path d="M1438 278.951L1438 278.951L1413.49 327.974L1389.97 280.942L1416.24 228.722L1463.25 228.452L1438 278.951Z" fill="#121315" stroke="black"/>
<path d="M1214.07 327.974L1190.56 280.942L1216.82 228.722L1263.83 228.452L1238.59 278.951L1238.59 278.951L1214.07 327.974Z" fill="#121315" stroke="black"/>
<path d="M1377.81 276.496L1328.02 276.496L1249.75 276.496L1273.8 228.407L1299.54 228.407L1353.76 228.407L1377.81 276.496Z" fill="#121315" stroke="black"/>
<path d="M1384.99 176.903L1408.6 224.127L1385.01 271.021L1361.4 223.805L1384.99 176.903Z" fill="#121315" stroke="black"/>
<path d="M1320.83 171.429L1296.78 219.518L1271.05 219.518L1216.82 219.518L1192.77 171.429L1242.56 171.429L1320.83 171.429Z" fill="#121315" stroke="black"/>
<path d="M1392.19 171.429L1441.98 171.429L1520.25 171.429L1496.2 219.518L1470.47 219.518L1416.24 219.518L1392.19 171.429Z" fill="#121315" stroke="black"/>
<path d="M1332 168.975L1332 168.975L1356.51 119.952L1380.03 166.984L1353.76 219.204L1306.75 219.474L1332 168.975Z" fill="#121315" stroke="black"/>
<path d="M1245.31 162.539L1221.26 114.457L1349.32 114.457L1325.28 162.539L1245.31 162.539Z" fill="#121315" stroke="black"/>
<path d="M1360.49 108.021L1360.36 107.745L1360.35 107.745L1335.21 57.4781L1382.25 57.4781L1409.52 111.995L1409.52 111.995L1434.79 162.538L1387.75 162.538L1360.49 108.021Z" fill="#121315" stroke="black"/>
<path d="M1420.68 114.457L1548.74 114.457L1524.69 162.539L1444.73 162.539L1420.68 114.457Z" fill="#121315" stroke="black"/>
<path d="M1349.32 105.567L1221.26 105.567L1245.31 57.4781L1325.28 57.4781L1349.32 105.567Z" fill="#121315" stroke="black"/>
<path d="M1444.73 57.4781L1524.69 57.4781L1548.74 105.567L1420.68 105.567L1444.73 57.4781Z" fill="#121315" stroke="black"/>
<path d="M1463.25 0.54392L1438 51.0507L1438 51.0507L1413.49 100.074L1389.97 53.0422L1416.24 0.821333L1463.25 0.54392Z" fill="#121315" stroke="black"/>
</svg>
